<?xml version="1.0" encoding="UTF-8"?>
<svg version="1.1" xmlns="http://www.w3.org/2000/svg" width="301" height="301">
<path d="M0 0 C99.33 0 198.66 0 301 0 C301 99.33 301 198.66 301 301 C201.67 301 102.34 301 0 301 C0 201.67 0 102.34 0 0 Z " fill="#FEFEFE" transform="translate(0,0)"/>
<path d="M0 0 C0.94018201 -0.00569124 1.88036402 -0.01138248 2.8490364 -0.01724619 C3.88899191 -0.01842606 4.92894743 -0.01960594 6.00041676 -0.02082157 C7.6494103 -0.0284533 7.6494103 -0.0284533 9.33171684 -0.03623921 C13.04044008 -0.05202044 16.74914377 -0.06050367 20.45789051 -0.06893253 C22.43237238 -0.07603875 24.40685426 -0.08315111 26.38133421 -0.09077286 C35.02396261 -0.12411867 43.66660297 -0.1456228 52.30927464 -0.16397271 C54.55945531 -0.16876681 56.80963549 -0.17375024 59.05981565 -0.17877793 C73.02961103 -0.20974924 86.99941054 -0.23643812 100.96923065 -0.25319672 C104.20601058 -0.2571463 107.44279043 -0.26114928 110.6795702 -0.2652216 C111.48406901 -0.26622996 112.28856782 -0.26723832 113.11744539 -0.26827724 C126.14920083 -0.28528331 139.18076635 -0.32639065 152.21242907 -0.37724458 C165.58848241 -0.42901347 178.96443808 -0.45813805 192.34059078 -0.4653936 C199.85216002 -0.47005693 207.36341832 -0.48481882 214.87488842 -0.5251379 C221.27239502 -0.5594356 227.66953458 -0.57337854 234.06712785 -0.56071376 C237.33105397 -0.55488581 240.59404093 -0.56202994 243.85788441 -0.5888834 C247.39863523 -0.61645986 250.93743465 -0.60710051 254.47819996 -0.58844852 C255.50700187 -0.60524345 256.53580378 -0.62203838 257.59578151 -0.63934225 C263.64908157 -0.55956267 266.94711224 0.37685412 271.3173421 4.65759796 C275.11617455 9.20056331 273.78361881 15.84743912 273.80676746 21.4523077 C273.83770496 23.3075909 273.83770496 23.3075909 273.86926746 25.20035458 C273.87442371 26.39338192 273.87957996 27.58640926 273.88489246 28.81558895 C273.89423817 29.90782772 273.90358387 31.00006649 273.91321278 32.1254034 C273.3548815 36.84712688 271.67575948 39.16864746 268.1193285 42.25523281 C263.64833744 45.12162313 258.85140505 44.6927419 253.70129871 44.64774227 C252.60601353 44.65398223 251.51072834 44.6602222 250.38225269 44.66665125 C246.71103884 44.68260977 243.04048628 44.66996513 239.36926746 44.65738583 C236.7377531 44.66280564 234.10624178 44.6699275 231.47473621 44.67862606 C225.06859208 44.69640585 218.66263549 44.69257379 212.25648403 44.6809755 C207.04975948 44.67193929 201.84308745 44.67071798 196.63635731 44.67507076 C195.89510577 44.67568369 195.15385424 44.67629663 194.39014053 44.67692813 C192.88426811 44.67820704 191.3783957 44.6795039 189.87252331 44.6808185 C175.75433418 44.69222271 161.63624898 44.67911312 147.5180769 44.65761703 C135.40592171 44.63974617 123.29391988 44.64285032 111.18176746 44.66129208 C97.11385543 44.68270163 83.04603446 44.69112409 68.97810841 44.67884302 C67.47779816 44.67756883 65.9774879 44.67631135 64.47717762 44.67507076 C63.36992659 44.67414511 63.36992659 44.67414511 62.24030685 44.67320076 C57.04027017 44.6697481 51.84029129 44.67557436 46.64026356 44.68498898 C39.64048136 44.69738354 32.64099373 44.68854995 25.64124012 44.66541195 C23.07011872 44.66011652 20.49897297 44.66165278 17.92786121 44.67046261 C14.42232182 44.68136805 10.91771588 44.66771338 7.41223621 44.64774227 C6.39103184 44.65666516 5.36982746 44.66558805 4.3176775 44.67478132 C-1.58726658 44.60938032 -4.93544509 44.05443699 -9.44323254 40.1398077 C-13.76527907 34.59343888 -12.99500328 28.50277757 -13.00573254 21.7648077 C-13.04247082 20.5582452 -13.0792091 19.3516827 -13.11706066 18.1085577 C-13.16615171 8.18125616 -13.16615171 8.18125616 -9.53307629 3.8507452 C-6.40268458 0.80003272 -4.35152352 0.0153262 0 0 Z " fill="#3F84F6" transform="translate(19.443232536315918,178.86019229888916)"/>
<path d="M0 0 C0.94018201 -0.00569124 1.88036402 -0.01138248 2.8490364 -0.01724619 C3.88899191 -0.01842606 4.92894743 -0.01960594 6.00041676 -0.02082157 C7.6494103 -0.0284533 7.6494103 -0.0284533 9.33171684 -0.03623921 C13.04044008 -0.05202044 16.74914377 -0.06050367 20.45789051 -0.06893253 C22.43237238 -0.07603875 24.40685426 -0.08315111 26.38133421 -0.09077286 C35.02396261 -0.12411867 43.66660297 -0.1456228 52.30927464 -0.16397271 C54.55945531 -0.16876681 56.80963549 -0.17375024 59.05981565 -0.17877793 C73.02961103 -0.20974924 86.99941054 -0.23643812 100.96923065 -0.25319672 C104.20601058 -0.2571463 107.44279043 -0.26114928 110.6795702 -0.2652216 C111.48406901 -0.26622996 112.28856782 -0.26723832 113.11744539 -0.26827724 C126.14920083 -0.28528331 139.18076635 -0.32639065 152.21242907 -0.37724458 C165.58848241 -0.42901347 178.96443808 -0.45813805 192.34059078 -0.4653936 C199.85216002 -0.47005693 207.36341832 -0.48481882 214.87488842 -0.5251379 C221.27239502 -0.5594356 227.66953458 -0.57337854 234.06712785 -0.56071376 C237.33105397 -0.55488581 240.59404093 -0.56202994 243.85788441 -0.5888834 C247.39863523 -0.61645986 250.93743465 -0.60710051 254.47819996 -0.58844852 C255.50700187 -0.60524345 256.53580378 -0.62203838 257.59578151 -0.63934225 C263.64908157 -0.55956267 266.94711224 0.37685412 271.3173421 4.65759796 C275.11617455 9.20056331 273.78361881 15.84743912 273.80676746 21.4523077 C273.83770496 23.3075909 273.83770496 23.3075909 273.86926746 25.20035458 C273.87442371 26.39338192 273.87957996 27.58640926 273.88489246 28.81558895 C273.89423817 29.90782772 273.90358387 31.00006649 273.91321278 32.1254034 C273.3548815 36.84712688 271.67575948 39.16864746 268.1193285 42.25523281 C263.64833744 45.12162313 258.85140505 44.6927419 253.70129871 44.64774227 C252.60601353 44.65398223 251.51072834 44.6602222 250.38225269 44.66665125 C246.71103884 44.68260977 243.04048628 44.66996513 239.36926746 44.65738583 C236.7377531 44.66280564 234.10624178 44.6699275 231.47473621 44.67862606 C225.06859208 44.69640585 218.66263549 44.69257379 212.25648403 44.6809755 C207.04975948 44.67193929 201.84308745 44.67071798 196.63635731 44.67507076 C195.89510577 44.67568369 195.15385424 44.67629663 194.39014053 44.67692813 C192.88426811 44.67820704 191.3783957 44.6795039 189.87252331 44.6808185 C175.75433418 44.69222271 161.63624898 44.67911312 147.5180769 44.65761703 C135.40592171 44.63974617 123.29391988 44.64285032 111.18176746 44.66129208 C97.11385543 44.68270163 83.04603446 44.69112409 68.97810841 44.67884302 C67.47779816 44.67756883 65.9774879 44.67631135 64.47717762 44.67507076 C63.36992659 44.67414511 63.36992659 44.67414511 62.24030685 44.67320076 C57.04027017 44.6697481 51.84029129 44.67557436 46.64026356 44.68498898 C39.64048136 44.69738354 32.64099373 44.68854995 25.64124012 44.66541195 C23.07011872 44.66011652 20.49897297 44.66165278 17.92786121 44.67046261 C14.42232182 44.68136805 10.91771588 44.66771338 7.41223621 44.64774227 C6.39103184 44.65666516 5.36982746 44.66558805 4.3176775 44.67478132 C-1.58726658 44.60938032 -4.93544509 44.05443699 -9.44323254 40.1398077 C-13.76527907 34.59343888 -12.99500328 28.50277757 -13.00573254 21.7648077 C-13.04247082 20.5582452 -13.0792091 19.3516827 -13.11706066 18.1085577 C-13.16615171 8.18125616 -13.16615171 8.18125616 -9.53307629 3.8507452 C-6.40268458 0.80003272 -4.35152352 0.0153262 0 0 Z " fill="#F5A010" transform="translate(19.443232536315918,127.86019229888916)"/>
<path d="M0 0 C0.94018201 -0.00569124 1.88036402 -0.01138248 2.8490364 -0.01724619 C3.88899191 -0.01842606 4.92894743 -0.01960594 6.00041676 -0.02082157 C7.6494103 -0.0284533 7.6494103 -0.0284533 9.33171684 -0.03623921 C13.04044008 -0.05202044 16.74914377 -0.06050367 20.45789051 -0.06893253 C22.43237238 -0.07603875 24.40685426 -0.08315111 26.38133421 -0.09077286 C35.02396261 -0.12411867 43.66660297 -0.1456228 52.30927464 -0.16397271 C54.55945531 -0.16876681 56.80963549 -0.17375024 59.05981565 -0.17877793 C73.02961103 -0.20974924 86.99941054 -0.23643812 100.96923065 -0.25319672 C104.20601058 -0.2571463 107.44279043 -0.26114928 110.6795702 -0.2652216 C111.48406901 -0.26622996 112.28856782 -0.26723832 113.11744539 -0.26827724 C126.14920083 -0.28528331 139.18076635 -0.32639065 152.21242907 -0.37724458 C165.58848241 -0.42901347 178.96443808 -0.45813805 192.34059078 -0.4653936 C199.85216002 -0.47005693 207.36341832 -0.48481882 214.87488842 -0.5251379 C221.27239502 -0.5594356 227.66953458 -0.57337854 234.06712785 -0.56071376 C237.33105397 -0.55488581 240.59404093 -0.56202994 243.85788441 -0.5888834 C247.39863523 -0.61645986 250.93743465 -0.60710051 254.47819996 -0.58844852 C255.50700187 -0.60524345 256.53580378 -0.62203838 257.59578151 -0.63934225 C263.64908157 -0.55956267 266.94711224 0.37685412 271.3173421 4.65759796 C275.10651255 9.18900867 273.82579682 15.79658506 273.86926746 21.3898077 C273.89827137 22.61828426 273.92727528 23.84676083 273.95715809 25.11246395 C274.02865451 35.26495582 274.02865451 35.26495582 271.91223621 38.8116827 C267.00028449 43.66661343 262.47787441 44.48583199 255.82203054 44.54570001 C254.80471712 44.53968997 253.78740369 44.53367992 252.73926258 44.52748775 C251.64806095 44.53287329 250.55685931 44.53825883 249.43259096 44.54380757 C245.77530079 44.55811778 242.11837098 44.55097566 238.46106434 44.54386044 C235.83940305 44.54956233 233.21774424 44.55652589 230.59608936 44.56465816 C224.21404166 44.58184531 217.83209242 44.58268646 211.45002759 44.57744526 C206.26285467 44.57340258 201.07571084 44.57484827 195.88853931 44.58019352 C195.15006314 44.58094194 194.41158697 44.58169036 193.65073273 44.58246147 C192.15049731 44.58399295 190.6502619 44.5855313 189.1500265 44.58707643 C175.08479385 44.60080087 161.01961684 44.59536392 146.95438546 44.58389122 C134.08714409 44.5739563 121.22004645 44.58690403 108.35282725 44.61082541 C95.13822834 44.63520742 81.92369641 44.64482666 68.70907545 44.63817269 C61.29103031 44.63467879 53.87309577 44.63692384 46.45506763 44.65442371 C39.48156226 44.67067102 32.50833629 44.66597811 25.53483868 44.64711857 C22.97338826 44.64342264 20.41191763 44.64657017 17.8504858 44.65700436 C14.35809457 44.67014641 10.86662352 44.65872578 7.37427235 44.64101315 C6.35695892 44.65061815 5.33964549 44.66022316 4.29150438 44.67011923 C-1.60385341 44.60845668 -4.94517069 44.05205711 -9.44323254 40.1398077 C-13.63277826 34.58043174 -12.9946045 27.86800239 -13.00573254 21.2023077 C-13.04247082 20.04795223 -13.0792091 18.89359676 -13.11706066 17.70426083 C-13.14541732 12.21252075 -13.1634646 8.21431392 -9.53307629 3.88590145 C-6.40338166 0.80581637 -4.37257454 0.01540034 0 0 Z " fill="#27C662" transform="translate(19.443232536315918,229.86019229888916)"/>
<path d="M0 0 C0.93433062 -0.00583219 1.86866124 -0.01166439 2.83130491 -0.01767331 C3.85444402 -0.01389399 4.87758313 -0.01011467 5.93172646 -0.00622082 C7.02121924 -0.01004636 8.11071203 -0.01387191 9.23321974 -0.01781338 C12.89665607 -0.02816086 16.55993617 -0.02414786 20.22338295 -0.02018261 C22.84474775 -0.02452812 25.46611128 -0.02971073 28.08747292 -0.03567028 C34.47646242 -0.04842879 40.86540992 -0.05020951 47.25441001 -0.04787002 C52.4473462 -0.04608786 57.64026961 -0.0478343 62.83320427 -0.05209446 C63.941325 -0.05298724 63.941325 -0.05298724 65.07183201 -0.05389806 C66.57255049 -0.0551098 68.07326896 -0.05632394 69.57398744 -0.05754044 C83.65255282 -0.06842057 97.73109425 -0.06625134 111.80966099 -0.06015559 C124.68993746 -0.05498689 137.57013829 -0.06623979 150.4503998 -0.08525381 C163.67396769 -0.10462505 176.89749978 -0.11288941 190.12108195 -0.10913056 C197.54584658 -0.10721731 204.97054684 -0.10971799 212.39529991 -0.1238451 C219.37694231 -0.13699454 226.35843074 -0.13450854 233.34007263 -0.12143421 C235.90474752 -0.1190621 238.46943299 -0.12182569 241.03409576 -0.13005733 C244.53083055 -0.14047258 248.02705147 -0.1324656 251.52376747 -0.11974621 C252.54244514 -0.12712049 253.56112281 -0.13449478 254.61066949 -0.14209253 C261.25959342 -0.09109369 265.77453133 0.72399373 270.69872475 5.55330372 C272.68029443 8.78551468 272.85733504 10.70269318 272.85082436 14.47322559 C272.85146889 15.65271778 272.85211342 16.83220997 272.85277748 18.04744434 C272.83279701 19.27076466 272.81281654 20.49408497 272.79223061 21.75447559 C272.79932045 22.97779591 272.80641029 24.20111622 272.81371498 25.46150684 C272.73935249 35.92945738 272.73935249 35.92945738 269.35473061 40.25447559 C264.00713656 44.89727929 259.39877716 44.82269545 252.49926186 44.76241016 C251.40397667 44.76865013 250.30869148 44.77489009 249.18021584 44.78131914 C245.50900198 44.79727766 241.83844943 44.78463302 238.16723061 44.77205372 C235.53571625 44.77747353 232.90420492 44.78459539 230.27269936 44.79329395 C223.86655523 44.81107374 217.46059863 44.80724168 211.05444717 44.79564339 C205.84772262 44.78660718 200.6410506 44.78538587 195.43432045 44.78973866 C194.69306891 44.79035159 193.95181738 44.79096452 193.18810368 44.79159603 C191.68223125 44.79287494 190.17635884 44.79417179 188.67048645 44.79548639 C174.55229733 44.8068906 160.43421212 44.79378101 146.31604004 44.77228492 C134.20388486 44.75441406 122.09188302 44.75751821 109.97973061 44.77595997 C95.91181857 44.79736952 81.8439976 44.80579198 67.77607155 44.79351091 C66.2757613 44.79223673 64.77545104 44.79097924 63.27514076 44.78973866 C62.16788973 44.788813 62.16788973 44.788813 61.03827 44.78786865 C55.83823332 44.784416 50.63825443 44.79024225 45.4382267 44.79965687 C38.4384445 44.81205144 31.43895688 44.80321784 24.43920326 44.78007984 C21.86808186 44.77478441 19.29693612 44.77632068 16.72582436 44.7851305 C13.22028497 44.79603594 9.71567902 44.78238127 6.21019936 44.76241016 C5.18899498 44.77133305 4.1677906 44.78025594 3.11564064 44.78944921 C-2.78943875 44.72404672 -6.13720944 44.16886687 -10.64526939 40.25447559 C-14.98655596 34.69521697 -14.15955399 28.5700169 -14.14526939 21.81697559 C-14.17362877 20.60203419 -14.20198814 19.38709278 -14.23120689 18.13533497 C-14.25302276 8.18184469 -14.25302276 8.18184469 -11.36401939 4.53181934 C-7.55648266 1.34246027 -4.98076659 0.00535428 0 0 Z " fill="#4085F6" transform="translate(20.6452693939209,25.745524406433105)"/>
<path d="M0 0 C0.93433062 -0.00583219 1.86866124 -0.01166439 2.83130491 -0.01767331 C3.85444402 -0.01389399 4.87758313 -0.01011467 5.93172646 -0.00622082 C7.02121924 -0.01004636 8.11071203 -0.01387191 9.23321974 -0.01781338 C12.89665607 -0.02816086 16.55993617 -0.02414786 20.22338295 -0.02018261 C22.84474775 -0.02452812 25.46611128 -0.02971073 28.08747292 -0.03567028 C34.47646242 -0.04842879 40.86540992 -0.05020951 47.25441001 -0.04787002 C52.4473462 -0.04608786 57.64026961 -0.0478343 62.83320427 -0.05209446 C63.941325 -0.05298724 63.941325 -0.05298724 65.07183201 -0.05389806 C66.57255049 -0.0551098 68.07326896 -0.05632394 69.57398744 -0.05754044 C83.65255282 -0.06842057 97.73109425 -0.06625134 111.80966099 -0.06015559 C124.68993746 -0.05498689 137.57013829 -0.06623979 150.4503998 -0.08525381 C163.67396769 -0.10462505 176.89749978 -0.11288941 190.12108195 -0.10913056 C197.54584658 -0.10721731 204.97054684 -0.10971799 212.39529991 -0.1238451 C219.37694231 -0.13699454 226.35843074 -0.13450854 233.34007263 -0.12143421 C235.90474752 -0.1190621 238.46943299 -0.12182569 241.03409576 -0.13005733 C244.53083055 -0.14047258 248.02705147 -0.1324656 251.52376747 -0.11974621 C252.54244514 -0.12712049 253.56112281 -0.13449478 254.61066949 -0.14209253 C261.25959342 -0.09109369 265.77453133 0.72399373 270.69872475 5.55330372 C272.68029443 8.78551468 272.85733504 10.70269318 272.85082436 14.47322559 C272.85146889 15.65271778 272.85211342 16.83220997 272.85277748 18.04744434 C272.83279701 19.27076466 272.81281654 20.49408497 272.79223061 21.75447559 C272.79932045 22.97779591 272.80641029 24.20111622 272.81371498 25.46150684 C272.74207028 35.54687564 272.74207028 35.54687564 269.35473061 40.25447559 C265.69894466 43.4532883 262.63271208 44.37805381 257.83250904 44.38869667 C256.90016947 44.39315451 255.9678299 44.39761236 255.00723761 44.40220529 C253.98118566 44.40202093 252.95513371 44.40183656 251.89798927 44.40164661 C250.80935091 44.4053233 249.72071255 44.40899999 248.59908515 44.41278809 C244.93258661 44.42384619 241.26611639 44.42767236 237.59960365 44.43147755 C234.97838691 44.4377405 232.35717106 44.44438715 229.73595619 44.45139027 C221.8572484 44.47115107 213.97853933 44.48121976 206.09981295 44.49011806 C202.39025251 44.49450102 198.6806935 44.49986775 194.97113419 44.50510693 C182.64135185 44.52211775 170.31157041 44.53661269 157.98177814 44.54385567 C154.78228377 44.54576558 151.58278941 44.54768591 148.38329506 44.54964161 C147.19045939 44.55036722 147.19045939 44.55036722 145.97352604 44.55110749 C133.08670525 44.55941073 120.1999772 44.58475322 107.31319692 44.61722229 C94.08514594 44.65027979 80.85714211 44.66830318 67.6290496 44.67149991 C60.20088341 44.67366607 52.77285252 44.68243031 45.34472656 44.70796108 C38.35897341 44.73191593 31.37346767 44.73550201 24.38768196 44.7251997 C21.82138764 44.72470262 19.25508159 44.73107333 16.6888237 44.74475574 C13.18972827 44.76237044 9.69151792 44.75541903 6.19242287 44.74222279 C5.17306308 44.75319203 4.15370329 44.76416128 3.10345381 44.77546293 C-2.80108843 44.721572 -6.13796345 44.16876123 -10.64526939 40.25447559 C-14.98655596 34.69521697 -14.15955399 28.5700169 -14.14526939 21.81697559 C-14.17362877 20.60203419 -14.20198814 19.38709278 -14.23120689 18.13533497 C-14.25302276 8.18184469 -14.25302276 8.18184469 -11.36401939 4.53181934 C-7.55648266 1.34246027 -4.98076659 0.00535428 0 0 Z " fill="#29C663" transform="translate(20.6452693939209,76.7455244064331)"/>
<path d="M0 0 C0.99 0 1.98 0 3 0 C3.33 1.98 3.66 3.96 4 6 C5.32 6 6.64 6 8 6 C8 5.34 8 4.68 8 4 C6.68 4.33 5.36 4.66 4 5 C4.33 4.01 4.66 3.02 5 2 C7.475 2.495 7.475 2.495 10 3 C10 5.31 10 7.62 10 10 C3.07 10 -3.86 10 -11 10 C-11.33 9.34 -11.66 8.68 -12 8 C-10.68 8.33 -9.36 8.66 -8 9 C-8 8.34 -8 7.68 -8 7 C-9.32 6.67 -10.64 6.34 -12 6 C-12 5.01 -12 4.02 -12 3 C-10.35 2.67 -8.7 2.34 -7 2 C-7 2.99 -7 3.98 -7 5 C-6.67 5.33 -6.34 5.66 -6 6 C-5.3503125 5.01 -5.3503125 5.01 -4.6875 4 C-4.130625 3.34 -3.57375 2.68 -3 2 C-2.01 2 -1.02 2 0 2 C0 1.34 0 0.68 0 0 Z " fill="#F9CC83" transform="translate(77,145)"/>
<path d="M0 0 C2.375 -0.1875 2.375 -0.1875 5 0 C5.66 0.99 6.32 1.98 7 3 C4.03 2.505 4.03 2.505 1 2 C1 2.66 1 3.32 1 4 C3.85078091 4.76716851 3.85078091 4.76716851 7 5 C8.62514468 3.54166642 8.62514468 3.54166642 10 2 C12.13745922 2.25146579 13.45925779 2.45925779 15 4 C15.125 6.5 15.125 6.5 15 9 C14 10 14 10 11.5625 10.125 C9 10 9 10 7 9 C4.6599583 9.28241883 2.32495277 9.61250787 0 10 C-0.33 9.01 -0.66 8.02 -1 7 C1.475 7.495 1.475 7.495 4 8 C4 7.34 4 6.68 4 6 C2.35 5.67 0.7 5.34 -1 5 C-0.67 3.35 -0.34 1.7 0 0 Z " fill="#FCEDDB" transform="translate(198,145)"/>
<path d="M0 0 C3.375 -0.125 3.375 -0.125 7 0 C7.66 0.66 8.32 1.32 9 2 C8.42307692 8.57692308 8.42307692 8.57692308 7 10 C4.66702567 10.04092937 2.33294775 10.04241723 0 10 C0 6.7 0 3.4 0 0 Z " fill="#E8F4C1" transform="translate(147,247)"/>
<path d="M0 0 C3.375 -0.125 3.375 -0.125 7 0 C7.66 0.66 8.32 1.32 9 2 C8.42307692 8.57692308 8.42307692 8.57692308 7 10 C4.66702567 10.04092937 2.33294775 10.04241723 0 10 C0 6.7 0 3.4 0 0 Z " fill="#E8F4C1" transform="translate(147,94)"/>
<path d="M0 0 C0.66 0 1.32 0 2 0 C2.66 0.99 3.32 1.98 4 3 C4.33 2.01 4.66 1.02 5 0 C5.99 0 6.98 0 8 0 C8.33 0.99 8.66 1.98 9 3 C9.66 2.01 10.32 1.02 11 0 C11.66 0 12.32 0 13 0 C12.34 3.3 11.68 6.6 11 10 C10.01 10 9.02 10 8 10 C7.34 9.01 6.68 8.02 6 7 C5.67 7.99 5.34 8.98 5 10 C4.01 10 3.02 10 2 10 C1.34 6.7 0.68 3.4 0 0 Z " fill="#FADBAB" transform="translate(19,145)"/>
<path d="M0 0 C0.99 0 1.98 0 3 0 C3.66 1.65 4.32 3.3 5 5 C5.433125 4.175 5.86625 3.35 6.3125 2.5 C6.869375 1.675 7.42625 0.85 8 0 C8.99 0 9.98 0 11 0 C11 3.3 11 6.6 11 10 C10.34 10 9.68 10 9 10 C8.67 9.01 8.34 8.02 8 7 C7.01 8.485 7.01 8.485 6 10 C5.34 10 4.68 10 4 10 C3.67 9.34 3.34 8.68 3 8 C2.67 8.66 2.34 9.32 2 10 C1.34 10 0.68 10 0 10 C0 6.7 0 3.4 0 0 Z " fill="#C0D4FA" transform="translate(20,43)"/>
<path d="M0 0 C0.99 0 1.98 0 3 0 C3 0.66 3 1.32 3 2 C4.32 2.33 5.64 2.66 7 3 C7 5.31 7 7.62 7 10 C6.34 10 5.68 10 5 10 C5 8.02 5 6.04 5 4 C4.34 4 3.68 4 3 4 C3 5.98 3 7.96 3 10 C0.69 10 -1.62 10 -4 10 C-4.33 7.36 -4.66 4.72 -5 2 C-3.68 2 -2.36 2 -1 2 C-1 3.98 -1 5.96 -1 8 C-0.67 5.36 -0.34 2.72 0 0 Z " fill="#FBEAD1" transform="translate(227,145)"/>
<path d="M0 0 C4 1 4 1 6 4 C6.33 2.68 6.66 1.36 7 0 C7.66 0 8.32 0 9 0 C9 3.3 9 6.6 9 10 C8.01 10 7.02 10 6 10 C5.34 8.68 4.68 7.36 4 6 C3.67 7.32 3.34 8.64 3 10 C2.01 10 1.02 10 0 10 C0 6.7 0 3.4 0 0 Z " fill="#D6E8FC" transform="translate(198,196)"/>
<path d="M0 0 C4 1 4 1 6 4 C6.33 2.68 6.66 1.36 7 0 C7.66 0 8.32 0 9 0 C9 3.3 9 6.6 9 10 C8.01 10 7.02 10 6 10 C5.34 8.68 4.68 7.36 4 6 C3.67 7.32 3.34 8.64 3 10 C2.01 10 1.02 10 0 10 C0 6.7 0 3.4 0 0 Z " fill="#D6E8FC" transform="translate(198,43)"/>
<path d="M0 0 C0.99 0 1.98 0 3 0 C3 3.3 3 6.6 3 10 C0.69 10 -1.62 10 -4 10 C-4.625 7.125 -4.625 7.125 -5 4 C-4.34 3.34 -3.68 2.68 -3 2 C-2.01 2 -1.02 2 0 2 C0 1.34 0 0.68 0 0 Z " fill="#F9CE85" transform="translate(45,145)"/>
<path d="M0 0 C1.65 0 3.3 0 5 0 C5 1.65 5 3.3 5 5 C5.66 5 6.32 5 7 5 C7 6.65 7 8.3 7 10 C4.69 10 2.38 10 0 10 C-1.125 6.25 -1.125 6.25 0 4 C0 2.68 0 1.36 0 0 Z " fill="#D6F4DE" transform="translate(222,247)"/>
<path d="M0 0 C1.65 0 3.3 0 5 0 C5 1.65 5 3.3 5 5 C5.66 5 6.32 5 7 5 C7 6.65 7 8.3 7 10 C4.69 10 2.38 10 0 10 C-1.125 6.25 -1.125 6.25 0 4 C0 2.68 0 1.36 0 0 Z " fill="#D6F4DE" transform="translate(222,94)"/>
<path d="M0 0 C0.66 0 1.32 0 2 0 C2.33 0.99 2.66 1.98 3 3 C3.33 2.01 3.66 1.02 4 0 C4.66 0 5.32 0 6 0 C6.33 0.66 6.66 1.32 7 2 C8.32 1.34 9.64 0.68 11 0 C10.34 2.64 9.68 5.28 9 8 C7.68 7.67 6.36 7.34 5 7 C3.68 7 2.36 7 1 7 C0.67 4.69 0.34 2.38 0 0 Z " fill="#D4F3D3" transform="translate(198,249)"/>
<path d="M0 0 C0.66 0 1.32 0 2 0 C2.33 0.99 2.66 1.98 3 3 C3.33 2.01 3.66 1.02 4 0 C4.66 0 5.32 0 6 0 C6.33 0.66 6.66 1.32 7 2 C8.32 1.34 9.64 0.68 11 0 C10.34 2.64 9.68 5.28 9 8 C7.68 7.67 6.36 7.34 5 7 C3.68 7 2.36 7 1 7 C0.67 4.69 0.34 2.38 0 0 Z " fill="#D4F3D3" transform="translate(198,96)"/>
<path d="M0 0 C1.32 0 2.64 0 4 0 C4.99 3.3 5.98 6.6 7 10 C6.01 10 5.02 10 4 10 C4 9.34 4 8.68 4 8 C2.68 8 1.36 8 0 8 C0 8.66 0 9.32 0 10 C-0.99 9.67 -1.98 9.34 -3 9 C-2.01 6.03 -1.02 3.06 0 0 Z " fill="#DEE8FC" transform="translate(242,196)"/>
<path d="M0 0 C0.66 0 1.32 0 2 0 C2 3.3 2 6.6 2 10 C0.00045254 10.04254356 -2.00041636 10.04080783 -4 10 C-5 9 -5 9 -5.0625 5.9375 C-5.041875 4.968125 -5.02125 3.99875 -5 3 C-4.360625 2.87625 -3.72125 2.7525 -3.0625 2.625 C-2.0415625 2.315625 -2.0415625 2.315625 -1 2 C-0.67 1.34 -0.34 0.68 0 0 Z " fill="#A4C3F9" transform="translate(54,43)"/>
<path d="M0 0 C1.32 0 2.64 0 4 0 C4.99 3.3 5.98 6.6 7 10 C6.01 10 5.02 10 4 10 C4 9.34 4 8.68 4 8 C2.68 8 1.36 8 0 8 C0 8.66 0 9.32 0 10 C-0.99 9.67 -1.98 9.34 -3 9 C-2.01 6.03 -1.02 3.06 0 0 Z " fill="#DEE8FC" transform="translate(242,43)"/>
<path d="M0 0 C0.66 0 1.32 0 2 0 C2 3.3 2 6.6 2 10 C0.00045254 10.04254356 -2.00041636 10.04080783 -4 10 C-5 9 -5 9 -5.1875 6.5625 C-5 4 -5 4 -3 2 C-2.01 2 -1.02 2 0 2 C0 1.34 0 0.68 0 0 Z " fill="#92E4B4" transform="translate(41,247)"/>
<path d="M0 0 C0.66 0 1.32 0 2 0 C2.33 0.99 2.66 1.98 3 3 C3.33 2.01 3.66 1.02 4 0 C4.99 0 5.98 0 7 0 C7.33 0.66 7.66 1.32 8 2 C8.33 1.34 8.66 0.68 9 0 C9.66 0 10.32 0 11 0 C10.34 2.64 9.68 5.28 9 8 C8.01 8 7.02 8 6 8 C6 7.34 6 6.68 6 6 C5.34 6 4.68 6 4 6 C4 6.66 4 7.32 4 8 C3.34 8 2.68 8 2 8 C0.74335022 5.09399739 0 3.20395416 0 0 Z " fill="#D6F3DA" transform="translate(165,249)"/>
<path d="M0 0 C0.66 0 1.32 0 2 0 C2 3.3 2 6.6 2 10 C0.00045254 10.04254356 -2.00041636 10.04080783 -4 10 C-5 9 -5 9 -5.0625 5.9375 C-5.041875 4.968125 -5.02125 3.99875 -5 3 C-4.360625 2.87625 -3.72125 2.7525 -3.0625 2.625 C-2.0415625 2.315625 -2.0415625 2.315625 -1 2 C-0.67 1.34 -0.34 0.68 0 0 Z " fill="#A6C5FA" transform="translate(63,196)"/>
<path d="M0 0 C1.32 0.33 2.64 0.66 4 1 C4.66 3.97 5.32 6.94 6 10 C5.34 10 4.68 10 4 10 C4 9.34 4 8.68 4 8 C1.69 8.66 -0.62 9.32 -3 10 C-2.49287967 6.28111761 -1.88391785 3.26545761 0 0 Z " fill="#FCF1E3" transform="translate(242,145)"/>
<path d="M0 0 C0.66 0 1.32 0 2 0 C2 3.3 2 6.6 2 10 C0.00045254 10.04254356 -2.00041636 10.04080783 -4 10 C-5 9 -5 9 -5.1875 6.5625 C-5 4 -5 4 -3 2 C-2.01 2 -1.02 2 0 2 C0 1.34 0 0.68 0 0 Z " fill="#92E4B4" transform="translate(56,94)"/>
<path d="M0 0 C0.66 0 1.32 0 2 0 C2.33 0.99 2.66 1.98 3 3 C3.33 2.01 3.66 1.02 4 0 C4.99 0 5.98 0 7 0 C7.33 0.66 7.66 1.32 8 2 C8.33 1.34 8.66 0.68 9 0 C9.66 0 10.32 0 11 0 C10.34 2.64 9.68 5.28 9 8 C8.01 8 7.02 8 6 8 C6 7.34 6 6.68 6 6 C5.34 6 4.68 6 4 6 C4 6.66 4 7.32 4 8 C3.34 8 2.68 8 2 8 C0.74335022 5.09399739 0 3.20395416 0 0 Z " fill="#D6F3DA" transform="translate(165,96)"/>
<path d="M0 0 C2 2 2 2 2.1953125 4.1640625 C2.17210937 4.97617188 2.14890625 5.78828125 2.125 6.625 C2.10695313 7.44226563 2.08890625 8.25953125 2.0703125 9.1015625 C2.03550781 10.04128906 2.03550781 10.04128906 2 11 C-0.31 11 -2.62 11 -5 11 C-5.33 8.36 -5.66 5.72 -6 3 C-4.68 3 -3.36 3 -2 3 C-2 4.98 -2 6.96 -2 9 C-1.855625 7.700625 -1.71125 6.40125 -1.5625 5.0625 C-1.125 1.125 -1.125 1.125 0 0 Z " fill="#C7D8FB" transform="translate(271,195)"/>
<path d="M0 0 C2 2 2 2 2.1953125 4.1640625 C2.17210937 4.97617187 2.14890625 5.78828125 2.125 6.625 C2.10695313 7.44226562 2.08890625 8.25953125 2.0703125 9.1015625 C2.03550781 10.04128906 2.03550781 10.04128906 2 11 C-0.31 11 -2.62 11 -5 11 C-5.33 8.36 -5.66 5.72 -6 3 C-4.68 3 -3.36 3 -2 3 C-2 4.98 -2 6.96 -2 9 C-1.855625 7.700625 -1.71125 6.40125 -1.5625 5.0625 C-1.125 1.125 -1.125 1.125 0 0 Z " fill="#C7D8FB" transform="translate(271,42)"/>
<path d="M0 0 C1 1 1 1 1.125 3.5 C1 6 1 6 0 7 C-2.5 7.125 -2.5 7.125 -5 7 C-6 6 -6 6 -6.0625 2.9375 C-6.041875 1.968125 -6.02125 0.99875 -6 0 C-3.49749232 -1.25125384 -2.59701335 -0.83774624 0 0 Z " fill="#BBEDC8" transform="translate(196,250)"/>
<path d="M0 0 C2.625 0.375 2.625 0.375 5 1 C5.04254356 2.99954746 5.04080783 5.00041636 5 7 C4 8 4 8 1.5 8.125 C-1 8 -1 8 -2 7 C-2.1875 4.5625 -2.1875 4.5625 -2 2 C-1.34 1.34 -0.68 0.68 0 0 Z " fill="#BBEDCC" transform="translate(159,249)"/>
<path d="M0 0 C1 1 1 1 1.125 3.5 C1 6 1 6 0 7 C-2.5 7.125 -2.5 7.125 -5 7 C-6 6 -6 6 -6.0625 2.9375 C-6.041875 1.968125 -6.02125 0.99875 -6 0 C-3.49749232 -1.25125384 -2.59701335 -0.83774624 0 0 Z " fill="#C3D9FB" transform="translate(215,199)"/>
<path d="M0 0 C0 0.66 0 1.32 0 2 C-0.66 2 -1.32 2 -2 2 C-1.34 3.98 -0.68 5.96 0 8 C-1.32 7.67 -2.64 7.34 -4 7 C-4 5.35 -4 3.7 -4 2 C-4.99 2.33 -5.98 2.66 -7 3 C-7.33 4.65 -7.66 6.3 -8 8 C-8.66 8 -9.32 8 -10 8 C-10 5.36 -10 2.72 -10 0 C-6.33694766 -0.74926071 -3.57644848 -1.2380014 0 0 Z " fill="#D6ECFD" transform="translate(227,198)"/>
<path d="M0 0 C2.875 -0.125 2.875 -0.125 6 0 C8 2 8 2 8.125 5.125 C8.08375 6.07375 8.0425 7.0225 8 8 C7.01 8 6.02 8 5 8 C5 6.02 5 4.04 5 2 C4.34 2 3.68 2 3 2 C3 3.98 3 5.96 3 8 C2.01 8 1.02 8 0 8 C0 5.36 0 2.72 0 0 Z " fill="#FAD9C0" transform="translate(273,147)"/>
<path d="M0 0 C1 1 1 1 1.125 3.5 C1 6 1 6 0 7 C-2.5 7.125 -2.5 7.125 -5 7 C-6 6 -6 6 -6.0625 2.9375 C-6.041875 1.968125 -6.02125 0.99875 -6 0 C-3.49749232 -1.25125384 -2.59701335 -0.83774624 0 0 Z " fill="#FBE1B5" transform="translate(212,148)"/>
<path d="M0 0 C1 1 1 1 1.125 3.5 C1 6 1 6 0 7 C-2.5 7.125 -2.5 7.125 -5 7 C-6 6 -6 6 -6.0625 2.9375 C-6.041875 1.968125 -6.02125 0.99875 -6 0 C-3.49749232 -1.25125384 -2.59701335 -0.83774624 0 0 Z " fill="#BBEDC8" transform="translate(196,97)"/>
<path d="M0 0 C2.625 0.375 2.625 0.375 5 1 C5.04254356 2.99954746 5.04080783 5.00041636 5 7 C4 8 4 8 1.5 8.125 C-1 8 -1 8 -2 7 C-2.1875 4.5625 -2.1875 4.5625 -2 2 C-1.34 1.34 -0.68 0.68 0 0 Z " fill="#BBEDCC" transform="translate(159,96)"/>
<path d="M0 0 C1 1 1 1 1.125 3.5 C1 6 1 6 0 7 C-2.5 7.125 -2.5 7.125 -5 7 C-6 6 -6 6 -6.0625 2.9375 C-6.041875 1.968125 -6.02125 0.99875 -6 0 C-3.49749232 -1.25125384 -2.59701335 -0.83774624 0 0 Z " fill="#C3D9FB" transform="translate(215,46)"/>
<path d="M0 0 C2.625 0.375 2.625 0.375 5 1 C5.04254356 2.99954746 5.04080783 5.00041636 5 7 C4 8 4 8 1.5 8.125 C-1 8 -1 8 -2 7 C-2.1875 4.5625 -2.1875 4.5625 -2 2 C-1.34 1.34 -0.68 0.68 0 0 Z " fill="#9CC1FA" transform="translate(34,45)"/>
<path d="M0 0 C0 0.66 0 1.32 0 2 C-0.66 2 -1.32 2 -2 2 C-1.34 3.98 -0.68 5.96 0 8 C-1.32 7.67 -2.64 7.34 -4 7 C-4 5.35 -4 3.7 -4 2 C-4.99 2.33 -5.98 2.66 -7 3 C-7.33 4.65 -7.66 6.3 -8 8 C-8.66 8 -9.32 8 -10 8 C-10 5.36 -10 2.72 -10 0 C-6.33694766 -0.74926071 -3.57644848 -1.2380014 0 0 Z " fill="#D6ECFD" transform="translate(227,45)"/>
<path d="M0 0 C0.99 0.33 1.98 0.66 3 1 C3 2.98 3 4.96 3 7 C3.33 5.02 3.66 3.04 4 1 C5.65 1 7.3 1 9 1 C9 1.66 9 2.32 9 3 C8.01 3.495 8.01 3.495 7 4 C6.34444881 6.52733235 6.34444881 6.52733235 6 9 C4.02 9 2.04 9 0 9 C-0.87890625 2.84765625 -0.87890625 2.84765625 -1 1 C-0.67 0.67 -0.34 0.34 0 0 Z " fill="#E7FAE9" transform="translate(261,248)"/>
<path d="M0 0 C0.99 0.33 1.98 0.66 3 1 C3 2.98 3 4.96 3 7 C3.33 5.02 3.66 3.04 4 1 C5.65 1 7.3 1 9 1 C9 1.66 9 2.32 9 3 C8.01 3.495 8.01 3.495 7 4 C6.34444881 6.52733235 6.34444881 6.52733235 6 9 C4.02 9 2.04 9 0 9 C-0.87890625 2.84765625 -0.87890625 2.84765625 -1 1 C-0.67 0.67 -0.34 0.34 0 0 Z " fill="#E7FAE9" transform="translate(261,95)"/>
<path d="M0 0 C1.2375 0.1546875 1.2375 0.1546875 2.5 0.3125 C3.16 1.3025 3.82 2.2925 4.5 3.3125 C2.52 3.3125 0.54 3.3125 -1.5 3.3125 C-1.5 4.6325 -1.5 5.9525 -1.5 7.3125 C0.48 6.9825 2.46 6.6525 4.5 6.3125 C4.5 7.3025 4.5 8.2925 4.5 9.3125 C1.125 9.9375 1.125 9.9375 -2.5 10.3125 C-4.5 8.3125 -4.5 8.3125 -4.75 5.3125 C-4.43541678 1.53750135 -3.81908518 0.47738565 0 0 Z " fill="#E1F8E7" transform="translate(238.5,246.6875)"/>
<path d="M0 0 C0.66 0 1.32 0 2 0 C2 0.66 2 1.32 2 2 C3.65 2.33 5.3 2.66 7 3 C7 5.31 7 7.62 7 10 C6.01 10 5.02 10 4 10 C4 8.02 4 6.04 4 4 C3.34 4 2.68 4 2 4 C2 5.98 2 7.96 2 10 C1.34 10 0.68 10 0 10 C0 6.7 0 3.4 0 0 Z " fill="#E1E9FC" transform="translate(228,196)"/>
<path d="M0 0 C1.2375 0.1546875 1.2375 0.1546875 2.5 0.3125 C3.16 1.3025 3.82 2.2925 4.5 3.3125 C2.52 3.3125 0.54 3.3125 -1.5 3.3125 C-1.5 4.6325 -1.5 5.9525 -1.5 7.3125 C0.48 6.9825 2.46 6.6525 4.5 6.3125 C4.5 7.3025 4.5 8.2925 4.5 9.3125 C1.125 9.9375 1.125 9.9375 -2.5 10.3125 C-4.5 8.3125 -4.5 8.3125 -4.75 5.3125 C-4.43541678 1.53750135 -3.81908518 0.47738565 0 0 Z " fill="#E1F8E7" transform="translate(238.5,93.6875)"/>
<path d="M0 0 C0.66 0 1.32 0 2 0 C2 0.66 2 1.32 2 2 C3.65 2.33 5.3 2.66 7 3 C7 5.31 7 7.62 7 10 C6.01 10 5.02 10 4 10 C4 8.02 4 6.04 4 4 C3.34 4 2.68 4 2 4 C2 5.98 2 7.96 2 10 C1.34 10 0.68 10 0 10 C0 6.7 0 3.4 0 0 Z " fill="#E1E9FC" transform="translate(228,43)"/>
<path d="M0 0 C0.66 0 1.32 0 2 0 C2 1.98 2 3.96 2 6 C2.66 6 3.32 6 4 6 C4 4.02 4 2.04 4 0 C4.99 0 5.98 0 7 0 C7 2.64 7 5.28 7 8 C4.69 8 2.38 8 0 8 C0 5.36 0 2.72 0 0 Z " fill="#DBE7FC" transform="translate(250,198)"/>
<path d="M0 0 C0.66 0 1.32 0 2 0 C2 1.98 2 3.96 2 6 C2.66 6 3.32 6 4 6 C4 4.02 4 2.04 4 0 C4.99 0 5.98 0 7 0 C7 2.64 7 5.28 7 8 C4.69 8 2.38 8 0 8 C0 5.36 0 2.72 0 0 Z " fill="#DBE7FC" transform="translate(250,45)"/>
<path d="M0 0 C2.125 0.375 2.125 0.375 4 1 C5.125 5.75 5.125 5.75 4 8 C2.33388095 8.042721 0.66617115 8.04063832 -1 8 C-2 7 -2 7 -2.1875 4.5625 C-2 2 -2 2 0 0 Z " fill="#D8F5E1" transform="translate(246,249)"/>
<path d="M0 0 C1.65 0.33 3.3 0.66 5 1 C5 3.31 5 5.62 5 8 C3.02 8 1.04 8 -1 8 C-1 6.68 -1 5.36 -1 4 C-0.34 3.67 0.32 3.34 1 3 C0.34 3 -0.32 3 -1 3 C-0.67 2.01 -0.34 1.02 0 0 Z " fill="#E2F8E6" transform="translate(272,249)"/>
<path d="M0 0 C0.99 0 1.98 0 3 0 C3 1.98 3 3.96 3 6 C3.66 6 4.32 6 5 6 C5 4.02 5 2.04 5 0 C5.66 0 6.32 0 7 0 C7 2.64 7 5.28 7 8 C5.00045254 8.04254356 2.99958364 8.04080783 1 8 C0 7 0 7 -0.0625 3.4375 C-0.041875 2.303125 -0.02125 1.16875 0 0 Z " fill="#FBEAD5" transform="translate(249,147)"/>
<path d="M0 0 C1.32 0.33 2.64 0.66 4 1 C4.38133299 2.9914056 4.71325582 4.99279077 5 7 C4 8 4 8 1.4375 8.0625 C0.633125 8.041875 -0.17125 8.02125 -1 8 C-1.93065133 5.39417629 -2.14917407 4.35801776 -1.0625 1.75 C-0.711875 1.1725 -0.36125 0.595 0 0 Z " fill="#FBE5C3" transform="translate(259,147)"/>
<path d="M0 0 C2.125 0.375 2.125 0.375 4 1 C5.125 5.75 5.125 5.75 4 8 C2.33388095 8.042721 0.66617115 8.04063832 -1 8 C-2 7 -2 7 -2.1875 4.5625 C-2 2 -2 2 0 0 Z " fill="#D8F5E1" transform="translate(246,96)"/>
<path d="M0 0 C1.65 0.33 3.3 0.66 5 1 C5 3.31 5 5.62 5 8 C3.02 8 1.04 8 -1 8 C-1 6.68 -1 5.36 -1 4 C-0.34 3.67 0.32 3.34 1 3 C0.34 3 -0.32 3 -1 3 C-0.67 2.01 -0.34 1.02 0 0 Z " fill="#E2F8E6" transform="translate(272,96)"/>
<path d="M0 0 C0.66 0 1.32 0 2 0 C2.66 0.66 3.32 1.32 4 2 C4.33 1.34 4.66 0.68 5 0 C5.66 0 6.32 0 7 0 C6.39159077 3.54905382 5.68842953 6.80087037 4 10 C1.875 10.8125 1.875 10.8125 0 11 C0.185625 10.113125 0.37125 9.22625 0.5625 8.3125 C0.98042484 5.14821189 0.80777742 3.05160358 0 0 Z " fill="#ACEAC2" transform="translate(52,249)"/>
<path d="M0 0 C1.65 0.33 3.3 0.66 5 1 C5 3.31 5 5.62 5 8 C3.02 8 1.04 8 -1 8 C-1 3 -1 3 0 0 Z " fill="#A7E8BD" transform="translate(46,249)"/>
<path d="M0 0 C2.97 0 5.94 0 9 0 C9 0.66 9 1.32 9 2 C8.01 2 7.02 2 6 2 C6 4.64 6 7.28 6 10 C5.01 10 4.02 10 3 10 C3 7.36 3 4.72 3 2 C2.01 2 1.02 2 0 2 C0 1.34 0 0.68 0 0 Z " fill="#ADCAFA" transform="translate(19,196)"/>
<path d="M0 0 C2.625 0.375 2.625 0.375 5 1 C5 2.32 5 3.64 5 5 C4.01 5.495 4.01 5.495 3 6 C3.66 6.33 4.32 6.66 5 7 C4 8 4 8 1.5 8.125 C-1 8 -1 8 -2 7 C-2.1875 4.5625 -2.1875 4.5625 -2 2 C-1.34 1.34 -0.68 0.68 0 0 Z " fill="#FAD9A6" transform="translate(59,147)"/>
<path d="M0 0 C2.625 0.375 2.625 0.375 5 1 C5 2.32 5 3.64 5 5 C4.01 5.495 4.01 5.495 3 6 C3.66 6.33 4.32 6.66 5 7 C4 8 4 8 1.5 8.125 C-1 8 -1 8 -2 7 C-2.1875 4.5625 -2.1875 4.5625 -2 2 C-1.34 1.34 -0.68 0.68 0 0 Z " fill="#FAD9A6" transform="translate(34,147)"/>
<path d="M0 0 C0.66 0 1.32 0 2 0 C2.66 0.66 3.32 1.32 4 2 C4.33 1.34 4.66 0.68 5 0 C5.66 0 6.32 0 7 0 C6.39159077 3.54905382 5.68842953 6.80087037 4 10 C1.875 10.8125 1.875 10.8125 0 11 C0.185625 10.113125 0.37125 9.22625 0.5625 8.3125 C0.98042484 5.14821189 0.80777742 3.05160358 0 0 Z " fill="#ACEAC2" transform="translate(67,96)"/>
<path d="M0 0 C0.33 1.32 0.66 2.64 1 4 C0.01 4.33 -0.98 4.66 -2 5 C-1.34 5 -0.68 5 0 5 C0 5.66 0 6.32 0 7 C-1.66611905 7.042721 -3.33382885 7.04063832 -5 7 C-6 6 -6 6 -6.0625 2.9375 C-6.041875 1.968125 -6.02125 0.99875 -6 0 C-3.50907189 -1.24546405 -2.58919267 -0.7767578 0 0 Z " fill="#ADE8BA" transform="translate(42,97)"/>
<path d="M0 0 C2.375 -0.125 2.375 -0.125 5 0 C7 2 7 2 7.125 5.125 C7.08375 6.07375 7.0425 7.0225 7 8 C6.01 8 5.02 8 4 8 C4 6.02 4 4.04 4 2 C3.34 2 2.68 2 2 2 C2 3.98 2 5.96 2 8 C1.34 8 0.68 8 0 8 C0 5.36 0 2.72 0 0 Z " fill="#D2F4CC" transform="translate(210,249)"/>
<path d="M0 0 C3 1 3 1 4 3 C4.66 2.01 5.32 1.02 6 0 C6.66 0 7.32 0 8 0 C7.60446947 1.6510403 7.18286103 3.2958515 6.75 4.9375 C6.40195313 6.31228516 6.40195313 6.31228516 6.046875 7.71484375 C5 10 5 10 2.890625 10.81640625 C2.26671875 10.87699219 1.6428125 10.93757812 1 11 C1 10.34 1 9.68 1 9 C1.66 9 2.32 9 3 9 C2.01 6.03 1.02 3.06 0 0 Z " fill="#B4CFFA" transform="translate(73,198)"/>
<path d="M0 0 C0.99 0.33 1.98 0.66 3 1 C3 1.99 3 2.98 3 4 C3.66 4 4.32 4 5 4 C5.33 2.68 5.66 1.36 6 0 C6.66 0 7.32 0 8 0 C7.60446947 1.6510403 7.18286103 3.2958515 6.75 4.9375 C6.40195313 6.31228516 6.40195313 6.31228516 6.046875 7.71484375 C5 10 5 10 2.890625 10.81640625 C2.26671875 10.87699219 1.6428125 10.93757812 1 11 C1 10.34 1 9.68 1 9 C1.66 9 2.32 9 3 9 C2.01 6.03 1.02 3.06 0 0 Z " fill="#FAD8A6" transform="translate(88,147)"/>
<path d="M0 0 C2.375 -0.125 2.375 -0.125 5 0 C7 2 7 2 7.125 5.125 C7.08375 6.07375 7.0425 7.0225 7 8 C6.01 8 5.02 8 4 8 C4 6.02 4 4.04 4 2 C3.34 2 2.68 2 2 2 C2 3.98 2 5.96 2 8 C1.34 8 0.68 8 0 8 C0 5.36 0 2.72 0 0 Z " fill="#D2F4CC" transform="translate(210,96)"/>
<path d="M0 0 C1.65 0.33 3.3 0.66 5 1 C5 3.31 5 5.62 5 8 C3.02 8 1.04 8 -1 8 C-1 3 -1 3 0 0 Z " fill="#A8E8BC" transform="translate(61,96)"/>
<path d="M0 0 C3 1 3 1 4 3 C4.66 2.01 5.32 1.02 6 0 C6.66 0 7.32 0 8 0 C7.60446947 1.6510403 7.18286103 3.2958515 6.75 4.9375 C6.40195313 6.31228516 6.40195313 6.31228516 6.046875 7.71484375 C5 10 5 10 2.890625 10.81640625 C2.26671875 10.87699219 1.6428125 10.93757813 1 11 C1 10.34 1 9.68 1 9 C1.66 9 2.32 9 3 9 C2.01 6.03 1.02 3.06 0 0 Z " fill="#B4CFFA" transform="translate(64,45)"/>
<path d="M0 0 C0.66 0 1.32 0 2 0 C2 0.66 2 1.32 2 2 C2.9590625 2.2165625 2.9590625 2.2165625 3.9375 2.4375 C6 3 6 3 7 4 C7.04080783 5.99958364 7.04254356 8.00045254 7 10 C6.34 10 5.68 10 5 10 C4.87625 9.195625 4.7525 8.39125 4.625 7.5625 C4.41875 6.716875 4.2125 5.87125 4 5 C3.34 4.67 2.68 4.34 2 4 C2 5.98 2 7.96 2 10 C1.34 10 0.68 10 0 10 C0 6.7 0 3.4 0 0 Z " fill="#C1CFF9" transform="translate(29,196)"/>
<path d="M0 0 C1.99954746 -0.04254356 4.00041636 -0.04080783 6 0 C7 1 7 1 7.0625 4.5625 C7.041875 5.696875 7.02125 6.83125 7 8 C6.34 8 5.68 8 5 8 C5 6.02 5 4.04 5 2 C4.01 2.495 4.01 2.495 3 3 C2.34444881 5.52733235 2.34444881 5.52733235 2 8 C1.34 8 0.68 8 0 8 C0 5.36 0 2.72 0 0 Z " fill="#C5F6EE" transform="translate(252,249)"/>
<path d="M0 0 C2.31 0 4.62 0 7 0 C7 0.66 7 1.32 7 2 C5.35 2 3.7 2 2 2 C2 2.66 2 3.32 2 4 C3.32 4 4.64 4 6 4 C6 4.66 6 5.32 6 6 C4.68 6 3.36 6 2 6 C2 7.32 2 8.64 2 10 C1.34 10 0.68 10 0 10 C0 6.7 0 3.4 0 0 Z " fill="#B4EABB" transform="translate(20,247)"/>
<path d="M0 0 C0.66 0 1.32 0 2 0 C2 1.98 2 3.96 2 6 C2.99 6 3.98 6 5 6 C5 4.02 5 2.04 5 0 C5.66 0 6.32 0 7 0 C7 2.64 7 5.28 7 8 C4.69 8 2.38 8 0 8 C0 5.36 0 2.72 0 0 Z " fill="#B2E7A5" transform="translate(28,96)"/>
<path d="M0 0 C1.99954746 -0.04254356 4.00041636 -0.04080783 6 0 C7 1 7 1 7.0625 4.5625 C7.041875 5.696875 7.02125 6.83125 7 8 C6.34 8 5.68 8 5 8 C5 6.02 5 4.04 5 2 C4.01 2.495 4.01 2.495 3 3 C2.34444881 5.52733235 2.34444881 5.52733235 2 8 C1.34 8 0.68 8 0 8 C0 5.36 0 2.72 0 0 Z " fill="#C5F6EE" transform="translate(252,96)"/>
<path d="M0 0 C1.99954746 -0.04254356 4.00041636 -0.04080783 6 0 C7 1 7 1 7.0625 4.5625 C7.041875 5.696875 7.02125 6.83125 7 8 C6.34 8 5.68 8 5 8 C5 6.02 5 4.04 5 2 C4.01 2.495 4.01 2.495 3 3 C2.34444881 5.52733235 2.34444881 5.52733235 2 8 C1.34 8 0.68 8 0 8 C0 5.36 0 2.72 0 0 Z " fill="#EBECFC" transform="translate(274,198)"/>
<path d="M0 0 C0.66 0 1.32 0 2 0 C2 1.98 2 3.96 2 6 C2.99 6 3.98 6 5 6 C5 4.02 5 2.04 5 0 C5.66 0 6.32 0 7 0 C7 2.64 7 5.28 7 8 C5.00045254 8.04254356 2.99958364 8.04080783 1 8 C0 7 0 7 -0.0625 3.4375 C-0.041875 2.303125 -0.02125 1.16875 0 0 Z " fill="#BED2FA" transform="translate(37,198)"/>
<path d="M0 0 C0.66 0 1.32 0 2 0 C2 1.98 2 3.96 2 6 C2.99 6 3.98 6 5 6 C5 4.02 5 2.04 5 0 C5.66 0 6.32 0 7 0 C7 2.64 7 5.28 7 8 C5.00045254 8.04254356 2.99958364 8.04080783 1 8 C0 7 0 7 -0.0625 3.4375 C-0.041875 2.303125 -0.02125 1.16875 0 0 Z " fill="#FCF4E5" transform="translate(214,147)"/>
<path d="M0 0 C1.99954746 -0.04254356 4.00041636 -0.04080783 6 0 C7 1 7 1 7.0625 4.5625 C7.041875 5.696875 7.02125 6.83125 7 8 C6.34 8 5.68 8 5 8 C5 6.02 5 4.04 5 2 C4.01 2.495 4.01 2.495 3 3 C2.34444881 5.52733235 2.34444881 5.52733235 2 8 C1.34 8 0.68 8 0 8 C0 5.36 0 2.72 0 0 Z " fill="#EBECFC" transform="translate(274,45)"/>
<path d="M0 0 C1.99954746 -0.04254356 4.00041636 -0.04080783 6 0 C7 1 7 1 7.0625 4.5625 C7.041875 5.696875 7.02125 6.83125 7 8 C6.34 8 5.68 8 5 8 C5 6.02 5 4.04 5 2 C4.01 2.495 4.01 2.495 3 3 C2.34444881 5.52733235 2.34444881 5.52733235 2 8 C1.34 8 0.68 8 0 8 C0 5.36 0 2.72 0 0 Z " fill="#B1D5FB" transform="translate(40,45)"/>
<path d="M0 0 C2.97 0.495 2.97 0.495 6 1 C6.33 2.65 6.66 4.3 7 6 C6.67 5.34 6.34 4.68 6 4 C5.01 4.66 4.02 5.32 3 6 C0.8125 5.625 0.8125 5.625 -1 5 C-0.67 3.35 -0.34 1.7 0 0 Z " fill="#3BC872" transform="translate(237,249)"/>
<path d="M0 0 C2.97 0.495 2.97 0.495 6 1 C6.33 2.65 6.66 4.3 7 6 C6.67 5.34 6.34 4.68 6 4 C5.01 4.66 4.02 5.32 3 6 C0.8125 5.625 0.8125 5.625 -1 5 C-0.67 3.35 -0.34 1.7 0 0 Z " fill="#3BC872" transform="translate(237,96)"/>
<path d="M0 0 C1 1 1 1 1.0625 4.0625 C1.041875 5.031875 1.02125 6.00125 1 7 C-1.31 7 -3.62 7 -6 7 C-6 5.68 -6 4.36 -6 3 C-5.01 3.33 -4.02 3.66 -3 4 C-3.33 4.66 -3.66 5.32 -4 6 C-3.34 5.67 -2.68 5.34 -2 5 C-1.34786708 2.97536745 -1.34786708 2.97536745 -1 1 C-2.65 1.33 -4.3 1.66 -6 2 C-6 1.34 -6 0.68 -6 0 C-3.49749232 -1.25125384 -2.59701335 -0.83774624 0 0 Z " fill="#BBD0FA" transform="translate(63,46)"/>
<path d="M0 0 C2.31 0.33 4.62 0.66 7 1 C7 3.31 7 5.62 7 8 C6.34 8 5.68 8 5 8 C5 6.02 5 4.04 5 2 C4.01 2 3.02 2 2 2 C2 3.98 2 5.96 2 8 C1.34 8 0.68 8 0 8 C0 5.36 0 2.72 0 0 Z " fill="#ECF7D9" transform="translate(177,249)"/>
<path d="M0 0 C3.875 0.875 3.875 0.875 5 2 C5.04080783 3.99958364 5.04254356 6.00045254 5 8 C2.69 8 0.38 8 -2 8 C-2 6.68 -2 5.36 -2 4 C-0.68 4.33 0.64 4.66 2 5 C1.34 5 0.68 5 0 5 C0 5.66 0 6.32 0 7 C0.66 6.67 1.32 6.34 2 6 C2.65213292 3.97536745 2.65213292 3.97536745 3 2 C1.68 2.33 0.36 2.66 -1 3 C-0.67 2.01 -0.34 1.02 0 0 Z " fill="#BFD4FA" transform="translate(68,198)"/>
<path d="M0 0 C2.31 0.33 4.62 0.66 7 1 C7 3.31 7 5.62 7 8 C6.34 8 5.68 8 5 8 C5 6.02 5 4.04 5 2 C4.01 2 3.02 2 2 2 C2 3.98 2 5.96 2 8 C1.34 8 0.68 8 0 8 C0 5.36 0 2.72 0 0 Z " fill="#FADFAF" transform="translate(49,147)"/>
<path d="M0 0 C2.31 0.33 4.62 0.66 7 1 C7 3.31 7 5.62 7 8 C6.34 8 5.68 8 5 8 C5 6.02 5 4.04 5 2 C4.01 2 3.02 2 2 2 C2 3.98 2 5.96 2 8 C1.34 8 0.68 8 0 8 C0 5.36 0 2.72 0 0 Z " fill="#ECF7D9" transform="translate(177,96)"/>
<path d="M0 0 C2.31 0 4.62 0 7 0 C7.33 0.66 7.66 1.32 8 2 C6.02 2 4.04 2 2 2 C2 4.31 2 6.62 2 9 C2.99 9.33 3.98 9.66 5 10 C3.35 10 1.7 10 0 10 C0 6.7 0 3.4 0 0 Z " fill="#D5F8F4" transform="translate(147,247)"/>
<path d="M0 0 C2.31 0 4.62 0 7 0 C7.33 0.66 7.66 1.32 8 2 C6.02 2 4.04 2 2 2 C2 4.31 2 6.62 2 9 C2.99 9.33 3.98 9.66 5 10 C3.35 10 1.7 10 0 10 C0 6.7 0 3.4 0 0 Z " fill="#D5F8F4" transform="translate(147,94)"/>
<path d="M0 0 C1.32 0.33 2.64 0.66 4 1 C3.67 1.66 3.34 2.32 3 3 C3.89163577 5.11683841 3.89163577 5.11683841 5 7 C4 8 4 8 1.4375 8.0625 C0.633125 8.041875 -0.17125 8.02125 -1 8 C-1.33 7.34 -1.66 6.68 -2 6 C-0.68 5.67 0.64 5.34 2 5 C0.68 4.67 -0.64 4.34 -2 4 C-1.34 2.68 -0.68 1.36 0 0 Z " fill="#BAD3FB" transform="translate(52,198)"/>
<path d="M0 0 C1.32 0 2.64 0 4 0 C3.67 0.99 3.34 1.98 3 3 C3.66 3.33 4.32 3.66 5 4 C5 5.32 5 6.64 5 8 C3.02 8 1.04 8 -1 8 C-1 7.34 -1 6.68 -1 6 C0.32 6.33 1.64 6.66 3 7 C3 6.34 3 5.68 3 5 C1.68 4.67 0.36 4.34 -1 4 C-0.67 2.68 -0.34 1.36 0 0 Z " fill="#E8F0FD" transform="translate(259,198)"/>
<path d="M0 0 C-0.33 0.66 -0.66 1.32 -1 2 C-0.67 2.33 -0.34 2.66 0 3 C0 4.32 0 5.64 0 7 C-1.65 7 -3.3 7 -5 7 C-5.33 6.34 -5.66 5.68 -6 5 C-4.68 5.33 -3.36 5.66 -2 6 C-2 5.34 -2 4.68 -2 4 C-3.32 3.67 -4.64 3.34 -6 3 C-6 2.01 -6 1.02 -6 0 C-3.50907189 -1.24546405 -2.58919267 -0.7767578 0 0 Z " fill="#FADAAE" transform="translate(71,148)"/>
<path d="M0 0 C1.65 0.33 3.3 0.66 5 1 C5 1.66 5 2.32 5 3 C4.01 3 3.02 3 2 3 C2.99 3.33 3.98 3.66 5 4 C4.67 5.32 4.34 6.64 4 8 C2.35 8 0.7 8 -1 8 C-1 7.34 -1 6.68 -1 6 C0.32 6.33 1.64 6.66 3 7 C3 6.34 3 5.68 3 5 C1.68 4.67 0.36 4.34 -1 4 C-0.67 2.68 -0.34 1.36 0 0 Z " fill="#B5EBC0" transform="translate(45,96)"/>
<path d="M0 0 C1.32 0 2.64 0 4 0 C3.67 0.99 3.34 1.98 3 3 C3.66 3.33 4.32 3.66 5 4 C5 5.32 5 6.64 5 8 C3.02 8 1.04 8 -1 8 C-1 7.34 -1 6.68 -1 6 C0.32 6.33 1.64 6.66 3 7 C3 6.34 3 5.68 3 5 C1.68 4.67 0.36 4.34 -1 4 C-0.67 2.68 -0.34 1.36 0 0 Z " fill="#E8F0FD" transform="translate(259,45)"/>
<path d="M0 0 C2.0625 0.4375 2.0625 0.4375 4 1 C4 3.64 4 6.28 4 9 C2.68 8.67 1.36 8.34 0 8 C-0.38063221 5.6739143 -0.71269945 3.33944736 -1 1 C-0.67 0.67 -0.34 0.34 0 0 Z " fill="#FBEDD3" transform="translate(265,146)"/>
<path d="M0 0 C2.64 0 5.28 0 8 0 C7.01 0.33 6.02 0.66 5 1 C5 3.97 5 6.94 5 10 C4.34 10 3.68 10 3 10 C3 7.36 3 4.72 3 2 C2.01 2 1.02 2 0 2 C0 1.34 0 0.68 0 0 Z " fill="#A5ECD2" transform="translate(19,94)"/>
<path d="M0 0 C0.66 0 1.32 0 2 0 C2 3.3 2 6.6 2 10 C1.01 10 0.02 10 -1 10 C-1.33 8.35 -1.66 6.7 -2 5 C-1.34 5 -0.68 5 0 5 C0 3.35 0 1.7 0 0 Z " fill="#E7F6FD" transform="translate(205,196)"/>
<path d="M0 0 C0.66 0 1.32 0 2 0 C2 3.3 2 6.6 2 10 C1.01 10 0.02 10 -1 10 C-1.33 8.35 -1.66 6.7 -2 5 C-1.34 5 -0.68 5 0 5 C0 3.35 0 1.7 0 0 Z " fill="#E7F6FD" transform="translate(205,43)"/>
<path d="M0 0 C1.65 0.33 3.3 0.66 5 1 C5 3.31 5 5.62 5 8 C3.35 8 1.7 8 0 8 C0.99 7.34 1.98 6.68 3 6 C3 4.68 3 3.36 3 2 C1.68 2.33 0.36 2.66 -1 3 C-0.67 2.01 -0.34 1.02 0 0 Z " fill="#FADEB0" transform="translate(82,147)"/>
<path d="M0 0 C0.99 0.33 1.98 0.66 3 1 C3 3.64 3 6.28 3 9 C2.01 9 1.02 9 0 9 C-0.87890625 2.84765625 -0.87890625 2.84765625 -1 1 C-0.67 0.67 -0.34 0.34 0 0 Z " fill="#F3F2FC" transform="translate(266,197)"/>
<path d="M0 0 C1.32 0.33 2.64 0.66 4 1 C4 1.66 4 2.32 4 3 C3.34 3 2.68 3 2 3 C2.66 4.98 3.32 6.96 4 9 C2.68 8.67 1.36 8.34 0 8 C0 5.36 0 2.72 0 0 Z " fill="#EAF3FD" transform="translate(223,197)"/>
<path d="M0 0 C0.99 0.33 1.98 0.66 3 1 C3 3.64 3 6.28 3 9 C2.01 9 1.02 9 0 9 C-0.87890625 2.84765625 -0.87890625 2.84765625 -1 1 C-0.67 0.67 -0.34 0.34 0 0 Z " fill="#FDF7EC" transform="translate(223,146)"/>
<path d="M0 0 C0.99 0.33 1.98 0.66 3 1 C3 3.64 3 6.28 3 9 C2.01 9 1.02 9 0 9 C-0.87890625 2.84765625 -0.87890625 2.84765625 -1 1 C-0.67 0.67 -0.34 0.34 0 0 Z " fill="#F3F2FC" transform="translate(266,44)"/>
<path d="M0 0 C1.32 0.33 2.64 0.66 4 1 C4 1.66 4 2.32 4 3 C3.34 3 2.68 3 2 3 C2.66 4.98 3.32 6.96 4 9 C2.68 8.67 1.36 8.34 0 8 C0 5.36 0 2.72 0 0 Z " fill="#EAF3FD" transform="translate(223,44)"/>
<path d="M0 0 C1.65 0 3.3 0 5 0 C5 0.66 5 1.32 5 2 C4.01 2.495 4.01 2.495 3 3 C2.34444881 5.52733235 2.34444881 5.52733235 2 8 C1.34 8 0.68 8 0 8 C0 5.36 0 2.72 0 0 Z " fill="#C7F5E7" transform="translate(265,249)"/>
<path d="M0 0 C0.99 0.33 1.98 0.66 3 1 C3 3.64 3 6.28 3 9 C2.01 9 1.02 9 0 9 C-0.87890625 2.84765625 -0.87890625 2.84765625 -1 1 C-0.67 0.67 -0.34 0.34 0 0 Z " fill="#F5F9E2" transform="translate(186,248)"/>
<path d="M0 0 C1.98 0.495 1.98 0.495 4 1 C3.67 2.65 3.34 4.3 3 6 C2.01 6 1.02 6 0 6 C-1.125 2.25 -1.125 2.25 0 0 Z " fill="#FCE6C2" transform="translate(242,145)"/>
<path d="M0 0 C1.65 0 3.3 0 5 0 C5 0.66 5 1.32 5 2 C4.01 2.495 4.01 2.495 3 3 C2.34444881 5.52733235 2.34444881 5.52733235 2 8 C1.34 8 0.68 8 0 8 C0 5.36 0 2.72 0 0 Z " fill="#C7F5E7" transform="translate(265,96)"/>
<path d="M0 0 C0.99 0.33 1.98 0.66 3 1 C3 3.64 3 6.28 3 9 C2.01 9 1.02 9 0 9 C-0.87890625 2.84765625 -0.87890625 2.84765625 -1 1 C-0.67 0.67 -0.34 0.34 0 0 Z " fill="#F5F9E2" transform="translate(186,95)"/>
<path d="M0 0 C1.65 0 3.3 0 5 0 C5 0.66 5 1.32 5 2 C4.01 2 3.02 2 2 2 C2 3.98 2 5.96 2 8 C1.34 8 0.68 8 0 8 C0 5.36 0 2.72 0 0 Z " fill="#9FEAC6" transform="translate(27,249)"/>
<path d="M0 0 C1.32 0.33 2.64 0.66 4 1 C3.67 2.65 3.34 4.3 3 6 C2.01 6 1.02 6 0 6 C0 4.02 0 2.04 0 0 Z " fill="#22C979" transform="translate(150,249)"/>
<path d="M0 0 C2.475 0.495 2.475 0.495 5 1 C5 2.98 5 4.96 5 7 C4.01 7 3.02 7 2 7 C2 5.02 2 3.04 2 1 C1.34 0.67 0.68 0.34 0 0 Z " fill="#FCEECB" transform="translate(276,148)"/>
<path d="M0 0 C1.32 0.33 2.64 0.66 4 1 C3.67 2.65 3.34 4.3 3 6 C2.01 6 1.02 6 0 6 C0 4.02 0 2.04 0 0 Z " fill="#22C979" transform="translate(150,96)"/>
<path d="M0 0 C1.65 0 3.3 0 5 0 C5 0.66 5 1.32 5 2 C4.01 2 3.02 2 2 2 C2 3.98 2 5.96 2 8 C1.34 8 0.68 8 0 8 C0 5.36 0 2.72 0 0 Z " fill="#B6D5FB" transform="translate(45,198)"/>
<path d="M0 0 C0.66 0 1.32 0 2 0 C4.1519437 3.22791555 4.20086443 4.28400809 4 8 C3.01 7.67 2.02 7.34 1 7 C0.67 4.69 0.34 2.38 0 0 Z " fill="#DAF8E9" transform="translate(198,249)"/>
<path d="M0 0 C1.65 0 3.3 0 5 0 C4.34 0.66 3.68 1.32 3 2 C2.60235737 3.98821313 2.26224651 5.98944339 2 8 C1.34 8 0.68 8 0 8 C0 5.36 0 2.72 0 0 Z " fill="#E4F6D6" transform="translate(210,249)"/>
<path d="M0 0 C0.66 0 1.32 0 2 0 C4.1519437 3.22791555 4.20086443 4.28400809 4 8 C3.01 7.67 2.02 7.34 1 7 C0.67 4.69 0.34 2.38 0 0 Z " fill="#DAF8E9" transform="translate(198,96)"/>
<path d="M0 0 C1.65 0 3.3 0 5 0 C4.34 0.66 3.68 1.32 3 2 C2.60235737 3.98821313 2.26224651 5.98944339 2 8 C1.34 8 0.68 8 0 8 C0 5.36 0 2.72 0 0 Z " fill="#E4F6D6" transform="translate(210,96)"/>
<path d="M0 0 C2.475 0.495 2.475 0.495 5 1 C5 3.31 5 5.62 5 8 C4.34 8 3.68 8 3 8 C2.814375 6.576875 2.814375 6.576875 2.625 5.125 C2.28312823 1.91332809 2.28312823 1.91332809 0 0 Z " fill="#DDF7E3" transform="translate(254,249)"/>
<path d="M0 0 C0.33 0 0.66 0 1 0 C1 3.3 1 6.6 1 10 C0.01 9.34 -0.98 8.68 -2 8 C-2 6.68 -2 5.36 -2 4 C-1.34 4 -0.68 4 0 4 C0 2.68 0 1.36 0 0 Z " fill="#5AA0F9" transform="translate(227,196)"/>
<path d="M0 0 C2.475 0.495 2.475 0.495 5 1 C5 3.31 5 5.62 5 8 C4.34 8 3.68 8 3 8 C2.814375 6.576875 2.814375 6.576875 2.625 5.125 C2.28312823 1.91332809 2.28312823 1.91332809 0 0 Z " fill="#DDF7E3" transform="translate(254,96)"/>
<path d="M0 0 C0.33 0 0.66 0 1 0 C1 3.3 1 6.6 1 10 C0.01 9.34 -0.98 8.68 -2 8 C-2 6.68 -2 5.36 -2 4 C-1.34 4 -0.68 4 0 4 C0 2.68 0 1.36 0 0 Z " fill="#5AA0F9" transform="translate(227,43)"/>
<path d="M0 0 C0.66 0 1.32 0 2 0 C3.76462683 3.08809695 4 4.23312136 4 8 C3.34 8 2.68 8 2 8 C0.74335022 5.09399739 0 3.20395416 0 0 Z " fill="#E1F9E7" transform="translate(165,249)"/>
<path d="M0 0 C0.66 0 1.32 0 2 0 C1.44271087 3.34373475 0.64826111 6.03312999 -1 9 C-1.80967438 6.08517222 -2.21845993 4.53886783 -1.0625 1.6875 C-0.711875 1.130625 -0.36125 0.57375 0 0 Z " fill="#A0E4AE" transform="translate(57,249)"/>
<path d="M0 0 C0.66 0 1.32 0 2 0 C3.76462683 3.08809695 4 4.23312136 4 8 C3.34 8 2.68 8 2 8 C0.74335022 5.09399739 0 3.20395416 0 0 Z " fill="#E1F9E7" transform="translate(165,96)"/>
<path d="M0 0 C0.66 0 1.32 0 2 0 C1.44271087 3.34373475 0.64826111 6.03312999 -1 9 C-1.80967438 6.08517222 -2.21845993 4.53886783 -1.0625 1.6875 C-0.711875 1.130625 -0.36125 0.57375 0 0 Z " fill="#A0E4AE" transform="translate(72,96)"/>
<path d="M0 0 C1.98 0.495 1.98 0.495 4 1 C4 1.99 4 2.98 4 4 C2.35 3.67 0.7 3.34 -1 3 C-0.67 2.01 -0.34 1.02 0 0 Z " fill="#BCEFD7" transform="translate(271,253)"/>
<path d="M0 0 C1.98 0.495 1.98 0.495 4 1 C4 1.99 4 2.98 4 4 C2.35 3.67 0.7 3.34 -1 3 C-0.67 2.01 -0.34 1.02 0 0 Z " fill="#BCEFD7" transform="translate(271,100)"/>
<path d="M0 0 C0 0.66 0 1.32 0 2 C-1.32 1.67 -2.64 1.34 -4 1 C-4.33 1.66 -4.66 2.32 -5 3 C-5 2.34 -5 1.68 -5 1 C-6.32 1.33 -7.64 1.66 -9 2 C-9.33 1.34 -9.66 0.68 -10 0 C-6.30458414 -0.95024979 -3.69541586 -0.95024979 0 0 Z " fill="#2CCA76" transform="translate(48,101)"/>
</svg>
