<?xml version="1.0" encoding="UTF-8"?>
<svg version="1.1" xmlns="http://www.w3.org/2000/svg" width="256" height="256">
<path d="M0 0 C17.89991455 16.03672642 31.06811647 37.64476968 33 62 C33.9856075 80.64816419 31.77527094 97.538382 25 115 C24.75266113 115.63760254 24.50532227 116.27520508 24.25048828 116.93212891 C15.53237824 138.92715982 2.11936418 157.80518991 -13.54150391 175.35791016 C-14.8161088 176.7929608 -16.07181784 178.24474979 -17.32421875 179.69921875 C-20.99292746 183.9445418 -24.80224236 187.71749933 -29.08984375 191.3359375 C-30.8810078 192.89633808 -32.49412931 194.52511922 -34.125 196.25 C-38.99070222 201.19293559 -44.59270704 205.28761854 -50.07568359 209.51220703 C-53.35822554 212.05011754 -56.615162 214.62054 -59.875 217.1875 C-61.05978236 218.11863399 -62.24466745 219.04963729 -63.4296875 219.98046875 C-64.27789062 220.64691406 -65.12609375 221.31335938 -66 222 C-82.17139011 214.53339529 -96.67279873 199.61462306 -109 187 C-109.804375 186.195625 -110.60875 185.39125 -111.4375 184.5625 C-112.283125 183.716875 -113.12875 182.87125 -114 182 C-114.53753906 181.50886719 -115.07507813 181.01773438 -115.62890625 180.51171875 C-123.06657438 173.50882036 -128.94363316 165.18372238 -135 157 C-135.67289063 156.10023438 -136.34578125 155.20046875 -137.0390625 154.2734375 C-157.26111767 126.38425241 -170.96160997 92.19853132 -165.75 57.4375 C-162.64917809 38.75029436 -154.93110788 21.96647768 -142 8 C-141.25363281 7.16210938 -140.50726563 6.32421875 -139.73828125 5.4609375 C-103.05813825 -33.70496726 -40.03097141 -33.74338428 0 0 Z " fill="#FAF3E1" transform="translate(195,31)"/>
<path d="M0 0 C17.89991455 16.03672642 31.06811647 37.64476968 33 62 C33.9856075 80.64816419 31.77527094 97.538382 25 115 C24.75266113 115.63760254 24.50532227 116.27520508 24.25048828 116.93212891 C15.53237824 138.92715982 2.11936418 157.80518991 -13.54150391 175.35791016 C-14.8161088 176.7929608 -16.07181784 178.24474979 -17.32421875 179.69921875 C-20.99292746 183.9445418 -24.80224236 187.71749933 -29.08984375 191.3359375 C-30.8810078 192.89633808 -32.49412931 194.52511922 -34.125 196.25 C-38.99070222 201.19293559 -44.59270704 205.28761854 -50.07568359 209.51220703 C-53.35822554 212.05011754 -56.615162 214.62054 -59.875 217.1875 C-61.05978236 218.11863399 -62.24466745 219.04963729 -63.4296875 219.98046875 C-64.27789062 220.64691406 -65.12609375 221.31335938 -66 222 C-82.17139011 214.53339529 -96.67279873 199.61462306 -109 187 C-109.804375 186.195625 -110.60875 185.39125 -111.4375 184.5625 C-112.283125 183.716875 -113.12875 182.87125 -114 182 C-114.53753906 181.50886719 -115.07507813 181.01773438 -115.62890625 180.51171875 C-123.06657438 173.50882036 -128.94363316 165.18372238 -135 157 C-135.67289063 156.10023438 -136.34578125 155.20046875 -137.0390625 154.2734375 C-157.26111767 126.38425241 -170.96160997 92.19853132 -165.75 57.4375 C-162.64917809 38.75029436 -154.93110788 21.96647768 -142 8 C-141.25363281 7.16210938 -140.50726563 6.32421875 -139.73828125 5.4609375 C-103.05813825 -33.70496726 -40.03097141 -33.74338428 0 0 Z M-122 14 C-122.69996094 14.61101563 -123.39992188 15.22203125 -124.12109375 15.8515625 C-136.73320477 27.40651802 -145.83411774 45.51954638 -147.20336914 62.52587891 C-148.18966445 88.01135422 -141.53615568 108.73088454 -124.6875 128.0625 C-111.54672614 142.21919923 -96.44783652 151.98433182 -79 160 C-77.48792969 160.70189453 -77.48792969 160.70189453 -75.9453125 161.41796875 C-70.47158587 163.7974968 -67.71026809 164.42065693 -61.98706055 162.22924805 C-32.29119081 149.97506725 -5.99913409 131.39901671 7 101 C14.89454028 80.03012739 14.79644405 60.02403732 5.91015625 39.48046875 C-3.6704625 18.99665425 -20.29790032 5.28587688 -41 -3 C-69.16687628 -12.35256745 -100.33990169 -6.58266632 -122 14 Z " fill="#2E292A" transform="translate(195,31)"/>
<path d="M0 0 C8.45577696 6.527495 18.78446442 15.74347679 20.7265625 26.77734375 C21.00905195 32.7369599 19.7149144 37.38610078 16.28515625 42.26953125 C10.47576839 48.60704528 1.67264139 50.41434467 -6.59593201 50.80383301 C-10.05668692 50.89615723 -13.51346897 50.91803104 -16.9753418 50.90087891 C-19.64472421 50.89454932 -22.30967736 50.94162366 -24.97851562 50.9921875 C-35.15593461 51.06734984 -43.22329751 50.48875714 -51.71484375 44.26953125 C-56.04572373 39.97879914 -57.06706361 35.93936868 -57.46484375 29.89453125 C-57.15460139 22.62479807 -54.40856019 18.61394775 -49.71484375 13.26953125 C-48.68423828 11.985625 -48.68423828 11.985625 -47.6328125 10.67578125 C-35.091358 -4.32876972 -17.69760652 -11.28063265 0 0 Z " fill="#8E5428" transform="translate(145.71484375,109.73046875)"/>
<path d="M0 0 C4.6157266 2.60596231 8.18975544 6.63412585 10.33984375 11.46484375 C12.17047571 18.49490376 12.37656024 26.96551846 9.375 33.6875 C7.2011968 37.18846725 4.76085508 39.23018584 1 41 C-4.47352133 41.91225356 -7.78979055 40.52603398 -12.20703125 37.484375 C-16.90609077 33.59408607 -18.76998075 28.84259145 -20 23 C-20.50184142 17.47974439 -19.84781928 12.77126444 -17 8 C-11.81677303 2.49878365 -7.81489122 -0.8967908 0 0 Z " fill="#8F562B" transform="translate(112,53)"/>
<path d="M0 0 C5.45063317 2.78093529 10.23906384 7.47812768 13 13 C13.63246609 20.90064198 14.11587709 28.52301799 9 35 C5.31419446 38.83015823 2.05842927 40.80580856 -3.3125 41.3125 C-7.82549836 40.93004251 -9.62149063 40.00311944 -13 37 C-17.68001331 31.36369914 -17.6501083 24.76325445 -17.453125 17.70703125 C-16.63672839 11.02806246 -14.09308104 6.31340536 -9.625 1.375 C-6.09853668 -0.47219507 -3.93574286 -0.55238496 0 0 Z " fill="#8D5428" transform="translate(148,53)"/>
<path d="M0 0 C6.33182117 2.79701318 10.67834812 7.09335127 13.96484375 13.14453125 C16.33666595 19.68718041 16.24092416 26.33431106 13.3125 32.625 C9.57711234 36.46134408 6.93685414 38.15796145 1.5625 38.4375 C-3.0515908 38.23124097 -5.54833742 37.22155174 -9 34 C-14.47471727 27.55619484 -15.89680885 21.67863814 -15.53125 13.2890625 C-14.79035167 8.70203019 -13.20702231 5.36059803 -10 2 C-6.15543246 -0.56304503 -4.5779655 -0.59070523 0 0 Z " fill="#8B5228" transform="translate(82,83)"/>
<path d="M0 0 C3.97132555 1.53437578 6.28706707 3.91583952 8.2734375 7.7109375 C10.16449072 13.66877184 10.08279843 21.07908624 7.8125 26.9375 C2.13333333 36.53333333 2.13333333 36.53333333 -3 38 C-7.67292528 38.45221858 -10.01097773 38.47549148 -14.25 36.4375 C-18.18193363 32.95237701 -20.49265405 29.82122282 -21.41796875 24.67578125 C-21.87209877 16.8573806 -19.1469371 10.75082695 -14.16796875 4.81640625 C-9.51130744 0.2515923 -6.46603861 -1.06000633 0 0 Z " fill="#90552A" transform="translate(178,83)"/>
<path d="M0 0 C-1.39332574 3.36720387 -2.9789286 4.9859524 -6 7 C-6 4 -6 4 -4.125 1.8125 C-2 0 -2 0 0 0 Z " fill="#935C34" transform="translate(103,55)"/>
<path d="M0 0 C0.66 0 1.32 0 2 0 C0.70700306 2.88437779 -0.65941363 4.87219421 -3 7 C-3.66 6.67 -4.32 6.34 -5 6 C-3.38405168 3.95880212 -1.7143618 1.95927063 0 0 Z " fill="#925D36" transform="translate(139,54)"/>
</svg>
