<?xml version="1.0" encoding="UTF-8"?>
<svg version="1.1" xmlns="http://www.w3.org/2000/svg" width="424" height="540">
<path d="M0 0 C1.20564102 0.00131424 1.20564102 0.00131424 2.43563843 0.00265503 C31.93454696 0.10801218 59.41822602 6.56930233 85.99658203 19.39648438 C88.98311739 20.81104757 92.01558903 22.09634945 95.0625 23.375 C95.0625 24.035 95.0625 24.695 95.0625 25.375 C96.7125 25.705 98.3625 26.035 100.0625 26.375 C100.0625 27.035 100.0625 27.695 100.0625 28.375 C101.0525 28.375 102.0425 28.375 103.0625 28.375 C103.0625 29.035 103.0625 29.695 103.0625 30.375 C103.75472656 30.60445312 104.44695312 30.83390625 105.16015625 31.0703125 C108.68499207 32.6548282 111.50820731 34.8495675 114.5 37.25 C117.69270351 39.78460797 120.84104502 42.2308785 124.26171875 44.45703125 C126.83344598 46.21814432 128.50452282 47.77863757 130.4375 50.1875 C133.51088149 53.86593199 136.84906166 56.90293456 140.55859375 59.9296875 C141.05488281 60.40664062 141.55117188 60.88359375 142.0625 61.375 C142.0625 62.035 142.0625 62.695 142.0625 63.375 C142.7225 63.375 143.3825 63.375 144.0625 63.375 C145.08766196 65.02630879 146.08118323 66.69726487 147.0625 68.375 C148.29150268 69.93442307 149.52240399 71.4926197 150.7800293 73.02905273 C156.59428989 80.13828481 161.51238587 87.51221997 166.01269531 95.51025391 C166.69963635 96.7304529 167.3940315 97.94649269 168.09667969 99.15771484 C184.22346793 126.97449552 191.51576433 158.60002724 191.4375 190.5625 C191.43662384 191.43939484 191.43574768 192.31628967 191.43484497 193.21975708 C191.31562773 229.5636893 181.83187637 262.56403132 167.1875 295.625 C166.80609863 296.48971924 166.42469727 297.35443848 166.03173828 298.24536133 C165.67321777 299.03579834 165.31469727 299.82623535 164.9453125 300.640625 C164.62965332 301.33961914 164.31399414 302.03861328 163.98876953 302.75878906 C163.0625 304.375 163.0625 304.375 161.0625 305.375 C160.81628906 306.1690625 160.57007813 306.963125 160.31640625 307.78125 C158.53716769 312.88062531 155.77676178 317.25928397 153 321.875 C152.13133301 323.33353394 152.13133301 323.33353394 151.24511719 324.8215332 C147.20069428 331.57809194 143.02130041 338.2291461 138.671875 344.79296875 C136.94406893 347.34121032 136.94406893 347.34121032 136.0625 350.375 C135.4025 350.375 134.7425 350.375 134.0625 350.375 C133.81242187 350.91511719 133.56234375 351.45523437 133.3046875 352.01171875 C131.79310953 354.88751961 130.01497673 357.50145401 128.1875 360.1875 C125.93370366 363.52751226 123.73355717 366.83257059 121.8125 370.375 C120.0625 373.375 120.0625 373.375 118.3359375 375.03515625 C115.12448098 378.34041821 112.59442443 382.05582153 109.9375 385.8125 C99.6068885 400.2617097 88.59545307 414.06962939 77.0871582 427.59838867 C74.27114991 430.91766247 71.51737283 434.27632575 68.8125 437.6875 C63.94347541 443.82069324 58.74339155 449.62417459 53.5 455.4375 C46.71476208 462.25202004 46.71476208 462.25202004 42.0625 470.375 C40.4609375 471.91796875 40.4609375 471.91796875 38.4375 473.5625 C33.22132773 477.98409406 28.91730687 482.96876406 24.75 488.375 C24.193125 489.035 23.63625 489.695 23.0625 490.375 C22.4025 490.375 21.7425 490.375 21.0625 490.375 C20.71445312 491.19291016 20.71445312 491.19291016 20.359375 492.02734375 C18.69377795 495.04247577 16.61324087 497.37531131 14.3125 499.9375 C13.47203125 500.88753906 12.6315625 501.83757812 11.765625 502.81640625 C8.02123911 506.36058654 4.72315038 508.13345085 -0.375 508.875 C-7.45696713 507.8810397 -11.44279134 503.07556809 -15.86328125 497.80078125 C-18.42617871 494.80349439 -21.11791471 491.94101746 -23.8125 489.0625 C-28.30655468 484.23691669 -32.53127731 479.26539319 -36.66015625 474.12109375 C-39.15576862 471.11180474 -41.77523459 468.23569513 -44.4375 465.375 C-48.80885628 460.67510755 -52.92752119 455.82366398 -56.95703125 450.82421875 C-58.58606025 448.80962075 -60.24064968 446.832189 -61.9375 444.875 C-68.04708674 437.80074167 -73.90658317 430.52245924 -79.52734375 423.0546875 C-80.85019074 421.25304075 -80.85019074 421.25304075 -82.9375 420.375 C-83.370625 419.6325 -83.80375 418.89 -84.25 418.125 C-85.88085577 415.22789622 -85.88085577 415.22789622 -88.5625 412.75 C-90.9375 410.375 -90.9375 410.375 -91.9375 407.375 C-92.5975 407.045 -93.2575 406.715 -93.9375 406.375 C-94.95798764 404.72079846 -95.95354808 403.05119104 -96.9375 401.375 C-98.43345436 399.27373077 -99.95562936 397.19094557 -101.5 395.125 C-102.28503906 394.06796875 -103.07007812 393.0109375 -103.87890625 391.921875 C-105.68359102 389.32925196 -105.68359102 389.32925196 -107.9375 388.375 C-108.91352995 386.6809725 -109.88584664 384.98457499 -110.82995605 383.27255249 C-112.49417041 380.42125786 -114.52303549 377.91132295 -116.578125 375.33203125 C-121.96156165 368.4654322 -126.86865726 361.33274092 -131.6875 354.0625 C-132.11615356 353.41802917 -132.54480713 352.77355835 -132.9864502 352.10955811 C-144.01695948 335.4954085 -154.38708798 318.47021274 -162.94384766 300.43457031 C-164.03844866 298.16576096 -165.17957406 295.92364441 -166.32421875 293.6796875 C-189.50445373 247.59192619 -198.59716641 192.70008677 -184.9375 142.375 C-184.71320313 141.45203125 -184.48890625 140.5290625 -184.2578125 139.578125 C-182.74061001 133.5434095 -180.61112992 127.96601366 -178.14453125 122.2578125 C-176.51185762 118.35841723 -175.21327139 114.40375174 -173.9375 110.375 C-173.2775 110.375 -172.6175 110.375 -171.9375 110.375 C-171.69 109.55 -171.4425 108.725 -171.1875 107.875 C-169.7488272 103.84671615 -167.9017314 100.16535278 -165.9375 96.375 C-165.26897697 95.04259646 -164.60179314 93.70951746 -163.9375 92.375 C-163.2775 92.375 -162.6175 92.375 -161.9375 92.375 C-161.2775 90.395 -160.6175 88.415 -159.9375 86.375 C-159.2775 86.375 -158.6175 86.375 -157.9375 86.375 C-157.70933594 85.68535156 -157.48117188 84.99570313 -157.24609375 84.28515625 C-155.64058414 80.71469459 -153.4336845 77.84258482 -151 74.8125 C-150.51708496 74.2040625 -150.03416992 73.595625 -149.53662109 72.96875 C-145.38775128 67.80380304 -140.98397075 62.91692115 -136.4453125 58.09375 C-134.6740538 56.17350692 -133.01745235 54.26691975 -131.37890625 52.2421875 C-129.26732845 49.76235053 -127.3503413 47.92220351 -124.75 46 C-120.4028026 42.73960195 -116.19593904 39.33618525 -112.00390625 35.87890625 C-109.9375 34.375 -109.9375 34.375 -107.9375 34.375 C-107.6075 33.385 -107.2775 32.395 -106.9375 31.375 C-105.29200789 30.65765913 -103.61998936 30.00066108 -101.9375 29.375 C-99.95999112 28.17692707 -98.00322696 26.9442812 -96.0625 25.6875 C-80.63289427 15.97724116 -63.53612952 9.63154425 -45.9375 5.125 C-44.9894751 4.8787085 -44.0414502 4.63241699 -43.06469727 4.37866211 C-28.80793143 0.87646974 -14.6136326 -0.03933351 0 0 Z " fill="#040304" transform="translate(210.9375,15.625)"/>
<path d="M0 0 C10.25978378 8.64059265 16.19282006 19.17847696 22.0222168 31.01269531 C29.21915287 45.60431407 36.6858967 56.52917492 50.47265625 65.39331055 C62.23496584 72.95712908 70.8249137 82.27125509 75.34765625 95.78125 C78.17613765 109.73734985 76.49368017 124.8302634 69 137 C61.68421958 147.56299365 50.46236485 153.59847245 38 156 C22.38606832 157.71135748 6.7645421 153.06692238 -8.26904297 149.30761719 C-29.7121224 144.03481755 -49.75037323 149.59581339 -70.66674805 154.47509766 C-86.13946823 157.95593352 -101.36147231 156.54021371 -115 148 C-125.28901712 140.75443089 -131.22548017 130.81268358 -133.5 118.4375 C-135.11339011 103.68394376 -132.04555393 89.92882424 -123 78 C-116.7773719 71.2758772 -109.81461189 66.33276116 -101.9453125 61.7890625 C-96.48846449 58.47442538 -92.8187337 54.87568839 -89.3125 49.5625 C-88.67284302 48.60307495 -88.67284302 48.60307495 -88.02026367 47.62426758 C-83.88124328 41.19699595 -80.73887283 34.36705761 -77.54467773 27.43676758 C-74.60388227 21.10967199 -71.45317433 15.40742598 -67 10 C-66.39929688 9.22785156 -65.79859375 8.45570313 -65.1796875 7.66015625 C-48.51887155 -12.60937894 -21.01699902 -15.4785388 0 0 Z " fill="#FDFDFD" transform="translate(240,197)"/>
<path d="M0 0 C8.48500448 5.19988106 12.48540796 14.58537725 15.45703125 23.734375 C20.07219296 42.99188431 16.99698518 63.07713738 7 80 C3.30485464 85.70228113 3.30485464 85.70228113 1 88 C0.34 88 -0.32 88 -1 88 C-1 88.66 -1 89.32 -1 90 C-9.35756746 95.83813444 -16.86275214 97.46768235 -27 96 C-30.28515625 94.5546875 -30.28515625 94.5546875 -33 93 C-33.86625 92.525625 -34.7325 92.05125 -35.625 91.5625 C-38.12860138 89.91539383 -40.0668725 88.29111407 -42 86 C-42 85.01 -42 84.02 -42 83 C-42.66 83 -43.32 83 -44 83 C-53.002386 68.09949903 -52.07001684 50.03600114 -48.22265625 33.69921875 C-44.63970688 20.85903537 -37.90893035 7.80510306 -26 1 C-18.17219302 -3.38357191 -8.25163386 -3.55952833 0 0 Z " fill="#FDFDFC" transform="translate(272,79)"/>
<path d="M0 0 C4.43833077 3.32690798 7.83451226 7.51743619 11.35546875 11.765625 C11.92007813 12.30574219 12.4846875 12.84585938 13.06640625 13.40234375 C14.88386753 15.32444673 15.00867194 17.19932857 15.35546875 19.765625 C16.01546875 19.765625 16.67546875 19.765625 17.35546875 19.765625 C18.08845812 22.11534979 18.79994378 24.46873928 19.48828125 26.83203125 C20.0297025 28.66359592 20.60279685 30.48644157 21.22265625 32.29296875 C25.55025101 46.32674032 25.56119132 64.30562673 19.35546875 77.765625 C17.48046875 81.140625 17.48046875 81.140625 15.35546875 83.765625 C14.87851563 84.35988281 14.4015625 84.95414062 13.91015625 85.56640625 C9.05144312 91.46278425 5.62566229 94.29439773 -2.078125 95.14453125 C-12.62278325 95.7788759 -19.43321885 93.90063872 -27.64453125 86.765625 C-29.30596915 84.70587261 -30.56861219 82.8074075 -31.71484375 80.4296875 C-32.67328421 78.4172444 -32.67328421 78.4172444 -35.64453125 76.765625 C-36.79584049 74.28430458 -37.78613096 71.89302892 -38.70703125 69.328125 C-38.97016113 68.59948242 -39.23329102 67.87083984 -39.50439453 67.12011719 C-45.47850905 50.12524458 -46.01163214 30.78386381 -39.64453125 13.765625 C-37.58000345 10.39053654 -35.56591119 7.4329719 -32.64453125 4.765625 C-32.19078125 4.29125 -31.73703125 3.816875 -31.26953125 3.328125 C-22.60069445 -5.007295 -10.6060381 -6.0210461 0 0 Z " fill="#FCFCFC" transform="translate(177.64453125,80.234375)"/>
<path d="M0 0 C5.27675043 3.44271052 8.44861413 6.93096522 10.96484375 12.66796875 C11.48433594 13.85003906 12.00382812 15.03210938 12.5390625 16.25 C14.34920031 21.13754069 14.42098822 25.7514583 14.33984375 30.91796875 C14.33041748 31.84601318 14.32099121 32.77405762 14.3112793 33.73022461 C14.05442798 45.43793748 10.7314146 55.04209539 5.96484375 65.66796875 C5.30484375 65.66796875 4.64484375 65.66796875 3.96484375 65.66796875 C3.96484375 66.65796875 3.96484375 67.64796875 3.96484375 68.66796875 C3.30484375 68.66796875 2.64484375 68.66796875 1.96484375 68.66796875 C1.96484375 69.32796875 1.96484375 69.98796875 1.96484375 70.66796875 C0.9863418 71.68901426 -0.01496052 72.68858085 -1.03515625 73.66796875 C-1.36515625 74.32796875 -1.69515625 74.98796875 -2.03515625 75.66796875 C-2.69515625 75.66796875 -3.35515625 75.66796875 -4.03515625 75.66796875 C-4.26203125 76.26609375 -4.48890625 76.86421875 -4.72265625 77.48046875 C-6.40225671 80.27980286 -8.1262075 81.24896936 -11.03515625 82.66796875 C-12.02515625 82.66796875 -13.01515625 82.66796875 -14.03515625 82.66796875 C-14.03515625 83.32796875 -14.03515625 83.98796875 -14.03515625 84.66796875 C-23.32756809 88.52259885 -31.20378346 89.06846922 -40.66015625 85.35546875 C-43.69921875 84.0546875 -43.69921875 84.0546875 -46.03515625 82.66796875 C-46.36515625 81.67796875 -46.69515625 80.68796875 -47.03515625 79.66796875 C-47.66035156 79.384375 -48.28554688 79.10078125 -48.9296875 78.80859375 C-53.46640728 76.35085316 -54.62195158 70.33837379 -56.03515625 65.66796875 C-58.53314422 52.57245605 -56.17305111 38.51500845 -50.03515625 26.66796875 C-49.03907636 25.33170432 -48.03960252 23.99795577 -47.03515625 22.66796875 C-46.69288208 21.33690253 -46.35763882 20.00396796 -46.03515625 18.66796875 C-45.37515625 18.33796875 -44.71515625 18.00796875 -44.03515625 17.66796875 C-43.70515625 16.67796875 -43.37515625 15.68796875 -43.03515625 14.66796875 C-32.70319512 3.08364869 -15.63381678 -6.86117313 0 0 Z " fill="#FCFCFC" transform="translate(337.03515625,159.33203125)"/>
<path d="M0 0 C2.65031919 1.87982359 4.40013872 3.90693351 6.23046875 6.58203125 C6.89046875 7.24203125 7.55046875 7.90203125 8.23046875 8.58203125 C14.23046875 14.58203125 14.23046875 14.58203125 14.23046875 18.58203125 C14.89046875 18.58203125 15.55046875 18.58203125 16.23046875 18.58203125 C17.19671763 20.74545641 18.15346305 22.91234384 19.10546875 25.08203125 C19.63914062 26.28859375 20.1728125 27.49515625 20.72265625 28.73828125 C23.513916 35.54121414 24.61977635 41.99302762 24.60546875 49.33203125 C24.60530762 50.11263916 24.60514648 50.89324707 24.60498047 51.69750977 C24.44900748 59.67593866 22.69340244 66.88763071 18.23046875 73.58203125 C17.57046875 73.58203125 16.91046875 73.58203125 16.23046875 73.58203125 C15.73546875 75.06703125 15.73546875 75.06703125 15.23046875 76.58203125 C14.57046875 76.58203125 13.91046875 76.58203125 13.23046875 76.58203125 C13.23046875 77.24203125 13.23046875 77.90203125 13.23046875 78.58203125 C4.95116352 83.4882862 -3.68948663 84.11866464 -12.984375 81.76953125 C-23.14191551 78.00457415 -30.98354193 71.37065682 -35.7578125 61.62109375 C-36.80354252 59.36725079 -36.80354252 59.36725079 -38.83203125 56.76953125 C-44.60225658 47.2765799 -45.9728232 36.76437238 -46.08203125 25.89453125 C-46.11103516 24.95158203 -46.14003906 24.00863281 -46.16992188 23.03710938 C-46.24224387 14.94260896 -44.41589309 7.74195757 -39.45703125 1.20703125 C-27.9324374 -10.04954879 -12.81598638 -7.96879032 0 0 Z " fill="#FDFCFC" transform="translate(117.76953125,164.41796875)"/>
<path d="M0 0 C0.66 0.33 1.32 0.66 2 1 C-1.96 4.96 -5.92 8.92 -10 13 C-10 8.41771462 -7.08388033 6.1816619 -4 3 C-1.625 1.0625 -1.625 1.0625 0 0 Z " fill="#DAD5D2" transform="translate(244,81)"/>
<path d="M0 0 C0.66 0.66 1.32 1.32 2 2 C1.9375 4.5 1.9375 4.5 1 7 C-1.5625 8.3125 -1.5625 8.3125 -4 9 C-3.38461538 3.46153846 -3.38461538 3.46153846 -1.4375 1.125 C-0.963125 0.75375 -0.48875 0.3825 0 0 Z " fill="#090A0E" transform="translate(143,224)"/>
<path d="M0 0 C0.66 0.33 1.32 0.66 2 1 C-0.97 3.97 -3.94 6.94 -7 10 C-7 6.04435836 -5.59478606 4.89133304 -3 2 C-2.01 1.34 -1.02 0.68 0 0 Z " fill="#DFDAD8" transform="translate(84,161)"/>
</svg>
